<svg width="39" height="39" viewBox="0 0 39 39" fill="none" xmlns="http://www.w3.org/2000/svg">
<g clip-path="url(#clip0_22_578)">
<path d="M30.569 14.8428C30.4121 14.9895 31.0248 14.7543 19.6848 18.3483C19.4189 18.4324 19.9834 18.5597 8.65193 14.9685C8.65117 14.9685 8.65041 14.9678 8.64965 14.9678C8.29644 14.8572 8.15544 14.4528 8.25507 14.203C8.25507 14.0819 8.1709 14.2507 19.0182 0.236003C19.2634 -0.078589 19.7373 -0.0786652 19.9826 0.236003C30.9134 14.3591 30.7458 14.0776 30.7458 14.203C30.8251 14.4013 30.737 14.7138 30.569 14.8428Z" fill="url(#paint0_linear_22_578)"/>
<path d="M19.0331 38.7819L8.369 26.0436C7.97907 25.5777 8.44128 24.888 9.02035 25.0716L19.5004 28.393L29.9804 25.0716C30.5593 24.888 31.0219 25.5777 30.6318 26.0436L19.9676 38.7819C19.7241 39.073 19.2764 39.0724 19.0331 38.7819Z" fill="url(#paint1_linear_22_578)"/>
<path d="M30.3489 23.6339C18.9083 27.2598 19.6417 27.0418 19.5004 27.0418C19.3523 27.0418 20.0529 27.2472 8.65191 23.6339C8.08671 23.4534 8.08709 22.6519 8.65191 22.4715L11.5328 21.5584C11.6683 21.5154 11.1992 21.3943 19.316 23.9668C19.4315 24.0033 19.5625 24.0054 19.6846 23.9668L27.2837 21.5584C27.4136 21.5172 27.2164 21.4787 30.3488 22.4715C30.9141 22.6519 30.9137 23.4535 30.3489 23.6339Z" fill="url(#paint2_linear_22_578)"/>
<path d="M30.3489 19.3057C18.9083 22.9316 19.6417 22.7136 19.5004 22.7136C19.3523 22.7136 20.0529 22.919 8.65191 19.3057C8.08671 19.1252 8.08709 18.3236 8.65191 18.1433C11.7778 17.1526 11.5855 17.1885 11.7176 17.2304C19.8826 19.8182 19.359 19.6667 19.5004 19.6667C19.6415 19.6667 19.1153 19.8192 27.2832 17.2304C27.4136 17.1891 27.2183 17.1511 30.3489 18.1433C30.9142 18.3238 30.9137 19.1254 30.3489 19.3057Z" fill="url(#paint3_linear_22_578)"/>
</g>
<defs>
<linearGradient id="paint0_linear_22_578" x1="19.4996" y1="3.05176e-05" x2="19.4996" y2="18.3766" gradientUnits="userSpaceOnUse">
<stop stop-color="#7000FF"/>
<stop offset="0.869792" stop-color="#1B166A"/>
</linearGradient>
<linearGradient id="paint1_linear_22_578" x1="19.5004" y1="25.0412" x2="19.5004" y2="39" gradientUnits="userSpaceOnUse">
<stop offset="0.151042" stop-color="#1B166A"/>
<stop offset="1" stop-color="#7000FF"/>
</linearGradient>
<linearGradient id="paint2_linear_22_578" x1="19.5004" y1="21.5422" x2="19.5004" y2="27.0443" gradientUnits="userSpaceOnUse">
<stop offset="0.182292" stop-color="#1B166A"/>
<stop offset="1" stop-color="#7000FF"/>
</linearGradient>
<linearGradient id="paint3_linear_22_578" x1="19.5004" y1="17.2142" x2="19.5004" y2="22.7161" gradientUnits="userSpaceOnUse">
<stop stop-color="#7000FF"/>
<stop offset="0.869792" stop-color="#1B166A"/>
</linearGradient>
<clipPath id="clip0_22_578">
<rect width="39" height="39" fill="white"/>
</clipPath>
</defs>
</svg>
