<svg width="99" height="44" viewBox="0 0 99 44" fill="none" xmlns="http://www.w3.org/2000/svg">
<g filter="url(#filter0_f_28_81)">
<ellipse rx="7.68452" ry="4.15898" transform="matrix(0.984055 -0.177867 0.204616 0.978842 28.5438 22.0264)" fill="url(#paint0_linear_28_81)"/>
</g>
<path d="M1.28931 30.1537C1.28931 30.1537 4.00796 25.4675 7.13141 27.081C10.2549 28.6946 10.6597 30.1537 13.4361 29.1855C16.2125 28.2174 16.3863 20.035 18.8156 21.6486C21.245 23.2622 27.2414 26.4893 32.4472 21.6486" stroke="url(#paint1_linear_28_81)" stroke-width="1.82001" stroke-linecap="round" stroke-linejoin="round"/>
<path d="M44.5112 28.265L43.626 29.0881C43.3001 29.3912 42.7716 29.3912 42.4457 29.0881C42.1198 28.785 42.1198 28.2937 42.4457 27.9906L43.3309 27.1675L41 25H46.8421V30.4324L44.5112 28.265Z" fill="#309AFF"/>
<path d="M57.2118 27.1672V24.975H56.5311V27.1672H54.3489V27.8478H56.5311V30.04H57.2118V27.8478H59.394V27.1672H57.2118ZM62.0527 25.986V26.7067C62.2129 26.6867 62.383 26.6767 62.5632 26.6767C62.7768 26.6767 62.9736 26.7067 63.1538 26.7668C63.3407 26.8201 63.5008 26.9069 63.6343 27.027C63.7678 27.1405 63.8745 27.2839 63.9546 27.4574C64.0347 27.6243 64.0747 27.8178 64.0747 28.038C64.0747 28.2516 64.0314 28.4451 63.9446 28.6186C63.8645 28.7854 63.7544 28.9289 63.6143 29.049C63.4741 29.1625 63.3106 29.2526 63.1238 29.3193C62.9369 29.3794 62.7401 29.4094 62.5332 29.4094C62.046 29.4094 61.6757 29.2659 61.4221 28.979C61.1685 28.6853 61.035 28.3083 61.0217 27.8478H60.1708C60.1642 28.2149 60.2142 28.5419 60.321 28.8288C60.4344 29.1158 60.5946 29.3594 60.8015 29.5596C61.0083 29.7531 61.2586 29.8999 61.5522 30C61.8458 30.1001 62.1728 30.1501 62.5332 30.1501C62.8669 30.1501 63.1805 30.1068 63.4741 30.02C63.7744 29.9266 64.0347 29.7898 64.2549 29.6096C64.4751 29.4294 64.6487 29.2059 64.7754 28.9389C64.9089 28.6653 64.9757 28.3517 64.9757 27.998C64.9757 27.5709 64.8689 27.2005 64.6553 26.8869C64.4485 26.5732 64.1281 26.3697 63.6944 26.2763V26.2562C63.9746 26.1294 64.2082 25.9426 64.3951 25.6957C64.5819 25.4488 64.6753 25.1651 64.6753 24.8448C64.6753 24.5178 64.6186 24.2342 64.5052 23.994C64.3984 23.7537 64.2483 23.5569 64.0547 23.4034C63.8612 23.2499 63.631 23.1364 63.364 23.063C63.1038 22.983 62.8202 22.9429 62.5132 22.9429C62.1595 22.9429 61.8458 22.9996 61.5722 23.1131C61.3053 23.2265 61.0817 23.3834 60.9016 23.5836C60.7214 23.7838 60.5812 24.024 60.4811 24.3043C60.3877 24.5846 60.3343 24.8949 60.321 25.2352H61.1718C61.1718 25.0283 61.1985 24.8315 61.2519 24.6446C61.3053 24.4578 61.3854 24.2943 61.4922 24.1541C61.6056 24.014 61.7457 23.9039 61.9126 23.8238C62.0861 23.737 62.2863 23.6937 62.5132 23.6937C62.8735 23.6937 63.1738 23.7904 63.4141 23.984C63.6543 24.1708 63.7744 24.4544 63.7744 24.8348C63.7744 25.0217 63.7377 25.1885 63.6643 25.3353C63.5909 25.4821 63.4908 25.6056 63.364 25.7057C63.2439 25.7991 63.1004 25.8725 62.9336 25.9259C62.7734 25.9726 62.6033 25.996 62.4231 25.996H62.2429C62.2095 25.996 62.1762 25.996 62.1428 25.996C62.1161 25.996 62.0861 25.9926 62.0527 25.986ZM66.7741 28.3283H65.9232C65.9766 28.9423 66.2002 29.3994 66.5939 29.6997C66.9876 30 67.4815 30.1501 68.0754 30.1501C68.9363 30.1501 69.5602 29.8232 69.9473 29.1692C70.341 28.5085 70.5379 27.5642 70.5379 26.3363C70.5379 25.6623 70.4711 25.1084 70.3377 24.6747C70.2109 24.2342 70.0374 23.8872 69.8172 23.6336C69.5969 23.38 69.34 23.2032 69.0464 23.1031C68.7527 22.9963 68.4391 22.9429 68.1054 22.9429C67.7651 22.9429 67.4514 22.9996 67.1645 23.1131C66.8775 23.2265 66.6306 23.3867 66.4237 23.5936C66.2169 23.7938 66.0567 24.0373 65.9433 24.3243C65.8298 24.6046 65.7731 24.9149 65.7731 25.2552C65.7731 25.6023 65.8198 25.9226 65.9132 26.2162C66.0133 26.5098 66.1568 26.7601 66.3437 26.967C66.5372 27.1738 66.7741 27.3373 67.0544 27.4574C67.3347 27.5709 67.655 27.6276 68.0153 27.6276C68.3624 27.6276 68.6827 27.5409 68.9763 27.3674C69.2699 27.1872 69.4968 26.9469 69.657 26.6466L69.677 26.6667C69.6503 27.5943 69.5068 28.2849 69.2466 28.7387C68.9863 29.1858 68.5959 29.4094 68.0754 29.4094C67.7351 29.4094 67.4414 29.316 67.1945 29.1291C66.9476 28.9423 66.8075 28.6753 66.7741 28.3283ZM69.5269 25.3153C69.5269 25.5222 69.4935 25.7224 69.4268 25.9159C69.36 26.1028 69.2633 26.2696 69.1365 26.4164C69.0097 26.5565 68.8562 26.67 68.676 26.7567C68.4958 26.8368 68.2956 26.8769 68.0754 26.8769C67.8685 26.8769 67.6783 26.8368 67.5048 26.7567C67.338 26.67 67.1912 26.5565 67.0644 26.4164C66.9443 26.2763 66.8475 26.1161 66.7741 25.9359C66.7074 25.7557 66.674 25.5689 66.674 25.3754C66.674 25.1551 66.6974 24.9449 66.7441 24.7447C66.7975 24.5445 66.8775 24.3677 66.9843 24.2142C67.0978 24.054 67.2412 23.9272 67.4147 23.8338C67.5949 23.7404 67.8118 23.6937 68.0654 23.6937C68.3056 23.6937 68.5158 23.737 68.696 23.8238C68.8762 23.9106 69.0264 24.0307 69.1465 24.1842C69.2733 24.331 69.3667 24.5011 69.4268 24.6947C69.4935 24.8882 69.5269 25.0951 69.5269 25.3153ZM71.8258 28.9289V30.04H72.9369V28.9289H71.8258ZM77.9251 24.7547H78.776C78.7226 24.1675 78.5224 23.7204 78.1754 23.4134C77.8284 23.0997 77.3612 22.9429 76.774 22.9429C76.2668 22.9429 75.8464 23.0497 75.5127 23.2632C75.179 23.4768 74.9121 23.7604 74.7119 24.1141C74.5117 24.4678 74.3682 24.8749 74.2815 25.3353C74.2014 25.7891 74.1614 26.2596 74.1614 26.7467C74.1614 27.1204 74.188 27.5075 74.2414 27.9079C74.3015 28.3083 74.4183 28.6753 74.5918 29.009C74.7653 29.3427 75.0122 29.6163 75.3325 29.8298C75.6529 30.0434 76.0766 30.1501 76.6038 30.1501C77.0509 30.1501 77.4246 30.0767 77.7249 29.9299C78.0319 29.7764 78.2755 29.5863 78.4557 29.3594C78.6425 29.1258 78.776 28.8689 78.8561 28.5886C78.9361 28.3083 78.9762 28.038 78.9762 27.7778C78.9762 27.4508 78.9261 27.1471 78.826 26.8669C78.7259 26.5866 78.5825 26.343 78.3956 26.1361C78.2154 25.9292 77.9885 25.7691 77.7149 25.6556C77.448 25.5355 77.1443 25.4755 76.804 25.4755C76.417 25.4755 76.0733 25.5489 75.773 25.6957C75.4793 25.8425 75.2324 26.0794 75.0322 26.4064L75.0122 26.3864C75.0189 26.1128 75.0456 25.8191 75.0923 25.5055C75.139 25.1918 75.2224 24.9015 75.3425 24.6346C75.4693 24.361 75.6428 24.1374 75.8631 23.9639C76.0833 23.7838 76.3736 23.6937 76.7339 23.6937C77.0743 23.6937 77.3479 23.7904 77.5548 23.984C77.7616 24.1775 77.8851 24.4344 77.9251 24.7547ZM76.6438 26.2262C76.8841 26.2262 77.0943 26.2696 77.2745 26.3563C77.4547 26.4431 77.6048 26.5599 77.7249 26.7067C77.8451 26.8468 77.9318 27.017 77.9852 27.2172C78.0453 27.4107 78.0753 27.6176 78.0753 27.8378C78.0753 28.0447 78.0419 28.2449 77.9752 28.4384C77.9151 28.6253 77.825 28.7921 77.7049 28.9389C77.5848 29.0857 77.4346 29.2025 77.2545 29.2893C77.081 29.3694 76.8774 29.4094 76.6438 29.4094C76.4103 29.4094 76.2001 29.3694 76.0132 29.2893C75.833 29.2025 75.6795 29.0891 75.5527 28.9489C75.4326 28.8088 75.3392 28.642 75.2725 28.4484C75.2057 28.2549 75.1724 28.048 75.1724 27.8278C75.1724 27.6076 75.2024 27.4007 75.2625 27.2072C75.3292 27.007 75.426 26.8368 75.5527 26.6967C75.6795 26.5499 75.833 26.4364 76.0132 26.3563C76.1934 26.2696 76.4036 26.2262 76.6438 26.2262ZM80.6845 28.3283H79.8337C79.8871 28.9423 80.1106 29.3994 80.5044 29.6997C80.8981 30 81.3919 30.1501 81.9858 30.1501C82.8467 30.1501 83.4707 29.8232 83.8577 29.1692C84.2515 28.5085 84.4483 27.5642 84.4483 26.3363C84.4483 25.6623 84.3816 25.1084 84.2481 24.6747C84.1213 24.2342 83.9478 23.8872 83.7276 23.6336C83.5074 23.38 83.2505 23.2032 82.9568 23.1031C82.6632 22.9963 82.3495 22.9429 82.0159 22.9429C81.6755 22.9429 81.3619 22.9996 81.0749 23.1131C80.788 23.2265 80.5411 23.3867 80.3342 23.5936C80.1273 23.7938 79.9672 24.0373 79.8537 24.3243C79.7403 24.6046 79.6835 24.9149 79.6835 25.2552C79.6835 25.6023 79.7303 25.9226 79.8237 26.2162C79.9238 26.5098 80.0673 26.7601 80.2541 26.967C80.4476 27.1738 80.6845 27.3373 80.9648 27.4574C81.2451 27.5709 81.5654 27.6276 81.9258 27.6276C82.2728 27.6276 82.5931 27.5409 82.8868 27.3674C83.1804 27.1872 83.4073 26.9469 83.5674 26.6466L83.5875 26.6667C83.5608 27.5943 83.4173 28.2849 83.157 28.7387C82.8968 29.1858 82.5064 29.4094 81.9858 29.4094C81.6455 29.4094 81.3519 29.316 81.105 29.1291C80.8581 28.9423 80.7179 28.6753 80.6845 28.3283ZM83.4373 25.3153C83.4373 25.5222 83.4039 25.7224 83.3372 25.9159C83.2705 26.1028 83.1737 26.2696 83.0469 26.4164C82.9201 26.5565 82.7666 26.67 82.5865 26.7567C82.4063 26.8368 82.2061 26.8769 81.9858 26.8769C81.779 26.8769 81.5888 26.8368 81.4153 26.7567C81.2484 26.67 81.1016 26.5565 80.9748 26.4164C80.8547 26.2763 80.758 26.1161 80.6845 25.9359C80.6178 25.7557 80.5844 25.5689 80.5844 25.3754C80.5844 25.1551 80.6078 24.9449 80.6545 24.7447C80.7079 24.5445 80.788 24.3677 80.8948 24.2142C81.0082 24.054 81.1517 23.9272 81.3252 23.8338C81.5054 23.7404 81.7223 23.6937 81.9758 23.6937C82.2161 23.6937 82.4263 23.737 82.6065 23.8238C82.7867 23.9106 82.9368 24.0307 83.0569 24.1842C83.1837 24.331 83.2771 24.5011 83.3372 24.6947C83.4039 24.8882 83.4373 25.0951 83.4373 25.3153ZM86.5771 24.9549C86.5771 24.8014 86.5871 24.6413 86.6071 24.4745C86.6271 24.3009 86.6672 24.1441 86.7272 24.004C86.794 23.8572 86.8841 23.737 86.9975 23.6436C87.111 23.5435 87.2611 23.4935 87.448 23.4935C87.6415 23.4935 87.7916 23.5435 87.8984 23.6436C88.0119 23.737 88.0986 23.8572 88.1587 24.004C88.2187 24.1441 88.2554 24.3009 88.2688 24.4745C88.2888 24.6413 88.2988 24.7981 88.2988 24.9449C88.2988 25.0984 88.2888 25.2619 88.2688 25.4354C88.2488 25.6089 88.2054 25.7691 88.1387 25.9159C88.0786 26.056 87.9918 26.1728 87.8784 26.2663C87.765 26.3597 87.6115 26.4064 87.4179 26.4064C87.2311 26.4064 87.0809 26.3597 86.9675 26.2663C86.8607 26.1662 86.7773 26.046 86.7172 25.9059C86.6572 25.7591 86.6171 25.6023 86.5971 25.4354C86.5838 25.2619 86.5771 25.1017 86.5771 24.9549ZM85.8263 24.975C85.8263 25.2486 85.853 25.5055 85.9064 25.7457C85.9665 25.986 86.0599 26.1962 86.1867 26.3764C86.3135 26.5565 86.4803 26.7 86.6872 26.8068C86.8941 26.9069 87.1477 26.9569 87.448 26.9569C87.7416 26.9569 87.9885 26.9002 88.1887 26.7868C88.3889 26.6733 88.5524 26.5265 88.6792 26.3463C88.8127 26.1595 88.9061 25.9459 88.9595 25.7057C89.0195 25.4588 89.0496 25.2052 89.0496 24.9449C89.0496 24.6713 89.0229 24.4144 88.9695 24.1742C88.9228 23.9272 88.836 23.7137 88.7092 23.5335C88.5891 23.3533 88.4256 23.2098 88.2187 23.1031C88.0185 22.9963 87.7616 22.9429 87.448 22.9429C87.141 22.9429 86.8841 22.9996 86.6772 23.1131C86.4703 23.2199 86.3035 23.3667 86.1767 23.5535C86.0499 23.7404 85.9598 23.9573 85.9064 24.2042C85.853 24.4444 85.8263 24.7013 85.8263 24.975ZM91.5221 28.1582C91.5221 28.0047 91.5321 27.8445 91.5521 27.6777C91.5721 27.5042 91.6122 27.3473 91.6722 27.2072C91.7389 27.0604 91.829 26.9403 91.9425 26.8468C92.0559 26.7467 92.2061 26.6967 92.3929 26.6967C92.5865 26.6967 92.7366 26.7467 92.8434 26.8468C92.9568 26.9403 93.0436 27.0604 93.1036 27.2072C93.1637 27.3473 93.2004 27.5042 93.2138 27.6777C93.2338 27.8445 93.2438 28.0013 93.2438 28.1481C93.2438 28.3016 93.2338 28.4651 93.2138 28.6386C93.1937 28.8121 93.1504 28.9723 93.0836 29.1191C93.0236 29.2593 92.9368 29.376 92.8234 29.4695C92.7099 29.5629 92.5564 29.6096 92.3629 29.6096C92.176 29.6096 92.0259 29.5629 91.9125 29.4695C91.8057 29.3694 91.7223 29.2492 91.6622 29.1091C91.6021 28.9623 91.5621 28.8055 91.5421 28.6386C91.5287 28.4651 91.5221 28.305 91.5221 28.1582ZM90.7713 28.1782C90.7713 28.4518 90.798 28.7087 90.8514 28.9489C90.9114 29.1892 91.0049 29.3994 91.1317 29.5796C91.2585 29.7531 91.4253 29.8932 91.6322 30C91.839 30.1001 92.0926 30.1501 92.3929 30.1501C92.6866 30.1501 92.9335 30.0968 93.1337 29.99C93.3339 29.8765 93.4974 29.7297 93.6242 29.5495C93.7576 29.3627 93.8511 29.1491 93.9045 28.9089C93.9645 28.662 93.9945 28.4084 93.9945 28.1481C93.9945 27.8745 93.9678 27.6176 93.9145 27.3774C93.8677 27.1305 93.781 26.9169 93.6542 26.7367C93.5341 26.5565 93.3706 26.4131 93.1637 26.3063C92.9635 26.1995 92.7066 26.1461 92.3929 26.1461C92.086 26.1461 91.829 26.2029 91.6222 26.3163C91.4153 26.4231 91.2485 26.5699 91.1217 26.7567C90.9949 26.9436 90.9048 27.1605 90.8514 27.4074C90.798 27.6476 90.7713 27.9046 90.7713 28.1782ZM92.1727 22.8128L86.7873 30.2503H87.6482L93.0236 22.8128H92.1727Z" fill="#309AFF"/>
<defs>
<filter id="filter0_f_28_81" x="3.75585" y="0.553461" width="49.5759" height="42.9459" filterUnits="userSpaceOnUse" color-interpolation-filters="sRGB">
<feFlood flood-opacity="0" result="BackgroundImageFix"/>
<feBlend mode="normal" in="SourceGraphic" in2="BackgroundImageFix" result="shape"/>
<feGaussianBlur stdDeviation="8.58875" result="effect1_foregroundBlur_28_81"/>
</filter>
<linearGradient id="paint0_linear_28_81" x1="8.50266" y1="10.7306" x2="12.8967" y2="3.73257" gradientUnits="userSpaceOnUse">
<stop stop-color="#62CBFF" stop-opacity="0.01"/>
<stop offset="1" stop-color="#339CFE"/>
</linearGradient>
<linearGradient id="paint1_linear_28_81" x1="20.5331" y1="19.1312" x2="14.7068" y2="35.0611" gradientUnits="userSpaceOnUse">
<stop stop-color="#309AFF"/>
<stop offset="0.287496" stop-color="#309AFF"/>
<stop offset="0.651175" stop-color="#5364AE"/>
<stop offset="1" stop-color="#70366B" stop-opacity="0.01"/>
</linearGradient>
</defs>
</svg>
