<svg width="87" height="19" viewBox="0 0 87 19" fill="none" xmlns="http://www.w3.org/2000/svg">
<path d="M65.7184 7.58312V15.38H71.6371V13.9386H67.4329V12.0276H71.2112V10.6953H67.4329V9.02457H71.5497V7.58312H65.7184ZM74.5248 9.02457V15.38H76.2392V9.02457H78.5761V7.58312H72.1879V9.02457H74.5248ZM79.4751 7.58312V15.38H81.1896V12.0167H84.3455V15.38H86.0599V7.58312H84.3455V10.5752H81.1896V7.58312H79.4751Z" fill="#7473D0"/>
<path d="M4.18377 8.65473H5.49872C5.48841 8.3247 5.51935 7.99983 5.59154 7.68011C5.67405 7.35008 5.80297 7.05615 5.97829 6.79832C6.15362 6.54048 6.37536 6.33422 6.64351 6.17952C6.92197 6.0145 7.252 5.93199 7.63359 5.93199C7.92237 5.93199 8.19567 5.9784 8.45351 6.07123C8.71134 6.16405 8.93308 6.29812 9.11872 6.47345C9.31467 6.64877 9.46937 6.8602 9.58282 7.10772C9.69627 7.34493 9.75299 7.61308 9.75299 7.91216C9.75299 8.29376 9.69111 8.62894 9.56735 8.91772C9.4539 9.20649 9.27858 9.47464 9.04137 9.72216C8.81447 9.96968 8.5257 10.2172 8.17504 10.4647C7.82439 10.7019 7.41701 10.9649 6.95291 11.2537C6.57131 11.4806 6.20519 11.723 5.85453 11.9808C5.50388 12.2386 5.18932 12.5377 4.91086 12.8781C4.6324 13.2184 4.40035 13.6206 4.21471 14.0847C4.03938 14.5385 3.92593 15.0903 3.87436 15.74H11.037V14.5798H5.4059C5.46778 14.2394 5.5967 13.9403 5.79265 13.6825C5.99892 13.4144 6.24129 13.1668 6.51975 12.9399C6.80852 12.713 7.12308 12.5016 7.46342 12.3057C7.80376 12.0994 8.1441 11.8931 8.48445 11.6869C8.82479 11.4703 9.15482 11.2434 9.47453 11.0062C9.79425 10.769 10.0779 10.506 10.3254 10.2172C10.5729 9.91812 10.7689 9.58293 10.9132 9.21165C11.0679 8.84037 11.1453 8.41236 11.1453 7.92763C11.1453 7.41196 11.0525 6.95818 10.8668 6.56627C10.6915 6.17436 10.4491 5.84949 10.1397 5.59165C9.83034 5.3235 9.46422 5.12239 9.04137 4.98832C8.62883 4.84393 8.18536 4.77174 7.71094 4.77174C7.13339 4.77174 6.61772 4.86972 6.16393 5.06567C5.71015 5.26162 5.32855 5.53493 5.01915 5.88558C4.72006 6.22593 4.49832 6.6333 4.35394 7.10772C4.20955 7.58214 4.15283 8.0978 4.18377 8.65473ZM15.4717 9.47464V10.5885C15.7192 10.5575 15.9822 10.5421 16.2607 10.5421C16.5907 10.5421 16.895 10.5885 17.1734 10.6813C17.4622 10.7638 17.7097 10.8979 17.916 11.0835C18.1223 11.2589 18.2873 11.4806 18.411 11.7487C18.5348 12.0066 18.5967 12.3057 18.5967 12.646C18.5967 12.976 18.5296 13.2751 18.3956 13.5433C18.2718 13.8011 18.1016 14.0228 17.8851 14.2085C17.6685 14.3838 17.4158 14.523 17.127 14.6262C16.8382 14.719 16.534 14.7654 16.2143 14.7654C15.4614 14.7654 14.889 14.5437 14.4971 14.1002C14.1052 13.6464 13.8989 13.0637 13.8783 12.3521H12.5633C12.553 12.9193 12.6304 13.4247 12.7954 13.8681C12.9707 14.3116 13.2182 14.6881 13.538 14.9975C13.8577 15.2965 14.2444 15.5234 14.6982 15.6781C15.152 15.8328 15.6574 15.9102 16.2143 15.9102C16.73 15.9102 17.2147 15.8432 17.6685 15.7091C18.1326 15.5647 18.5348 15.3533 18.8751 15.0748C19.2155 14.7963 19.4836 14.4508 19.6796 14.0383C19.8858 13.6155 19.989 13.1307 19.989 12.5841C19.989 11.9241 19.824 11.3517 19.4939 10.8669C19.1742 10.3822 18.6792 10.0677 18.0088 9.92327V9.89233C18.442 9.69638 18.8029 9.4076 19.0917 9.02601C19.3805 8.64441 19.5249 8.20609 19.5249 7.71105C19.5249 7.2057 19.4372 6.76738 19.2619 6.3961C19.0969 6.02481 18.8648 5.72057 18.5657 5.48336C18.2666 5.24615 17.9108 5.07083 17.4983 4.95738C17.0961 4.83362 16.6578 4.77174 16.1833 4.77174C15.6367 4.77174 15.152 4.8594 14.7292 5.03473C14.3166 5.21006 13.9711 5.45242 13.6927 5.76182C13.4142 6.07122 13.1976 6.44251 13.0429 6.87567C12.8985 7.30883 12.816 7.7884 12.7954 8.31439H14.1104C14.1104 7.99467 14.1516 7.69043 14.2341 7.40165C14.3166 7.11288 14.4404 6.8602 14.6054 6.64362C14.7807 6.42704 14.9973 6.25687 15.2551 6.1331C15.5233 5.99903 15.8327 5.93199 16.1833 5.93199C16.7403 5.93199 17.2044 6.08154 17.5757 6.38063C17.9469 6.6694 18.1326 7.10772 18.1326 7.69558C18.1326 7.98436 18.0759 8.24219 17.9624 8.46909C17.849 8.69598 17.6943 8.88678 17.4983 9.04148C17.3127 9.18587 17.0909 9.29931 16.8331 9.38182C16.5856 9.45401 16.3226 9.49011 16.0441 9.49011H15.7657C15.7141 9.49011 15.6625 9.49011 15.611 9.49011C15.5697 9.49011 15.5233 9.48495 15.4717 9.47464ZM21.9794 14.0228V15.74H23.6966V14.0228H21.9794ZM25.6817 8.65473H26.9967C26.9864 8.3247 27.0173 7.99983 27.0895 7.68011C27.172 7.35008 27.3009 7.05615 27.4763 6.79832C27.6516 6.54048 27.8733 6.33422 28.1415 6.17952C28.4199 6.0145 28.75 5.93199 29.1316 5.93199C29.4203 5.93199 29.6936 5.9784 29.9515 6.07123C30.2093 6.16405 30.431 6.29812 30.6167 6.47345C30.8126 6.64877 30.9673 6.8602 31.0808 7.10772C31.1942 7.34493 31.251 7.61308 31.251 7.91216C31.251 8.29376 31.1891 8.62894 31.0653 8.91772C30.9519 9.20649 30.7765 9.47464 30.5393 9.72216C30.3124 9.96968 30.0237 10.2172 29.673 10.4647C29.3224 10.7019 28.915 10.9649 28.4509 11.2537C28.0693 11.4806 27.7032 11.723 27.3525 11.9808C27.0018 12.2386 26.6873 12.5377 26.4088 12.8781C26.1304 13.2184 25.8983 13.6206 25.7127 14.0847C25.5373 14.5385 25.4239 15.0903 25.3723 15.74H32.535V14.5798H26.9039C26.9657 14.2394 27.0947 13.9403 27.2906 13.6825C27.4969 13.4144 27.7392 13.1668 28.0177 12.9399C28.3065 12.713 28.621 12.5016 28.9614 12.3057C29.3017 12.0994 29.6421 11.8931 29.9824 11.6869C30.3228 11.4703 30.6528 11.2434 30.9725 11.0062C31.2922 10.769 31.5758 10.506 31.8233 10.2172C32.0709 9.91812 32.2668 9.58293 32.4112 9.21165C32.5659 8.84037 32.6433 8.41236 32.6433 7.92763C32.6433 7.41196 32.5504 6.95818 32.3648 6.56627C32.1895 6.17436 31.9471 5.84949 31.6377 5.59165C31.3283 5.3235 30.9622 5.12239 30.5393 4.98832C30.1268 4.84393 29.6833 4.77174 29.2089 4.77174C28.6314 4.77174 28.1157 4.86972 27.6619 5.06567C27.2081 5.26162 26.8265 5.53493 26.5171 5.88558C26.218 6.22593 25.9963 6.6333 25.8519 7.10772C25.7075 7.58214 25.6508 8.0978 25.6817 8.65473ZM36.9697 9.47464V10.5885C37.2172 10.5575 37.4802 10.5421 37.7587 10.5421C38.0887 10.5421 38.3929 10.5885 38.6714 10.6813C38.9602 10.7638 39.2077 10.8979 39.414 11.0835C39.6202 11.2589 39.7852 11.4806 39.909 11.7487C40.0328 12.0066 40.0946 12.3057 40.0946 12.646C40.0946 12.976 40.0276 13.2751 39.8935 13.5433C39.7698 13.8011 39.5996 14.0228 39.383 14.2085C39.1664 14.3838 38.9138 14.523 38.625 14.6262C38.3362 14.719 38.032 14.7654 37.7122 14.7654C36.9594 14.7654 36.387 14.5437 35.9951 14.1002C35.6032 13.6464 35.3969 13.0637 35.3763 12.3521H34.0613C34.051 12.9193 34.1283 13.4247 34.2934 13.8681C34.4687 14.3116 34.7162 14.6881 35.0359 14.9975C35.3556 15.2965 35.7424 15.5234 36.1962 15.6781C36.65 15.8328 37.1553 15.9102 37.7122 15.9102C38.2279 15.9102 38.7126 15.8432 39.1664 15.7091C39.6305 15.5647 40.0328 15.3533 40.3731 15.0748C40.7134 14.7963 40.9816 14.4508 41.1775 14.0383C41.3838 13.6155 41.4869 13.1307 41.4869 12.5841C41.4869 11.9241 41.3219 11.3517 40.9919 10.8669C40.6722 10.3822 40.1771 10.0677 39.5068 9.92327V9.89233C39.9399 9.69638 40.3009 9.4076 40.5897 9.02601C40.8785 8.64441 41.0228 8.20609 41.0228 7.71105C41.0228 7.2057 40.9352 6.76738 40.7599 6.3961C40.5948 6.02481 40.3628 5.72057 40.0637 5.48336C39.7646 5.24615 39.4088 5.07083 38.9963 4.95738C38.594 4.83362 38.1557 4.77174 37.6813 4.77174C37.1347 4.77174 36.65 4.8594 36.2271 5.03473C35.8146 5.21006 35.4691 5.45242 35.1906 5.76182C34.9122 6.07122 34.6956 6.44251 34.5409 6.87567C34.3965 7.30883 34.314 7.7884 34.2934 8.31439H35.6083C35.6083 7.99467 35.6496 7.69043 35.7321 7.40165C35.8146 7.11288 35.9383 6.8602 36.1034 6.64362C36.2787 6.42704 36.4953 6.25687 36.7531 6.1331C37.0213 5.99903 37.3307 5.93199 37.6813 5.93199C38.2382 5.93199 38.7023 6.08154 39.0736 6.38063C39.4449 6.6694 39.6305 7.10772 39.6305 7.69558C39.6305 7.98436 39.5738 8.24219 39.4604 8.46909C39.3469 8.69598 39.1922 8.88678 38.9963 9.04148C38.8106 9.18587 38.5889 9.29931 38.3311 9.38182C38.0835 9.45401 37.8205 9.49011 37.5421 9.49011H37.2636C37.2121 9.49011 37.1605 9.49011 37.1089 9.49011C37.0677 9.49011 37.0213 9.48495 36.9697 9.47464ZM47.4377 12.0117H43.7559L47.4068 6.64362H47.4377V12.0117ZM48.6753 12.0117V4.77174H47.6234L42.6265 11.9034V13.172H47.4377V15.74H48.6753V13.172H50.1605V12.0117H48.6753Z" fill="white"/>
</svg>
