<svg width="646" height="229" viewBox="0 0 646 229" fill="none" xmlns="http://www.w3.org/2000/svg">
<g opacity="0.5" filter="url(#filter0_f_18_3423)">
<rect x="53" y="83.1206" width="160.161" height="62.7903" rx="4.55002" fill="url(#paint0_linear_18_3423)"/>
</g>
<path d="M75.88 44.528L73.804 53H71.716L70.132 46.856L68.536 53H66.46L64.384 44.528H66.22L67.516 51.092L69.196 44.528H71.056L72.748 51.092L74.044 44.528H75.88ZM82.4375 51.296H79.0415L78.4415 53H76.6535L79.7735 44.624H81.7055L84.8135 53H83.0255L82.4375 51.296ZM81.9815 50.012L80.7335 46.436L79.4855 50.012H81.9815ZM87.6587 51.704H90.5027V53H85.9667V44.528H87.6587V51.704ZM93.4417 51.704H96.2857V53H91.7497V44.528H93.4417V51.704ZM99.2247 45.872V48.068H102.225V49.364H99.2247V51.644H102.585V53H97.5327V44.528H102.585V45.872H99.2247ZM109.837 44.528V45.872H107.497V53H105.805V45.872H103.477V44.528H109.837ZM116.829 50.684C116.829 51.116 116.721 51.516 116.505 51.884C116.289 52.244 115.969 52.536 115.545 52.76C115.121 52.976 114.605 53.084 113.997 53.084C113.397 53.084 112.861 52.984 112.389 52.784C111.917 52.576 111.537 52.28 111.249 51.896C110.969 51.512 110.809 51.064 110.769 50.552H112.569C112.609 50.896 112.745 51.184 112.977 51.416C113.217 51.64 113.533 51.752 113.925 51.752C114.277 51.752 114.545 51.66 114.729 51.476C114.921 51.284 115.017 51.04 115.017 50.744C115.017 50.48 114.941 50.264 114.789 50.096C114.637 49.92 114.445 49.78 114.213 49.676C113.981 49.572 113.661 49.452 113.253 49.316C112.725 49.14 112.293 48.968 111.957 48.8C111.621 48.624 111.333 48.372 111.093 48.044C110.861 47.716 110.745 47.288 110.745 46.76C110.745 46.032 111.005 45.46 111.525 45.044C112.053 44.62 112.749 44.408 113.613 44.408C114.509 44.408 115.221 44.624 115.749 45.056C116.285 45.488 116.589 46.064 116.661 46.784H114.837C114.789 46.48 114.661 46.232 114.453 46.04C114.245 45.84 113.961 45.74 113.601 45.74C113.289 45.74 113.037 45.824 112.845 45.992C112.653 46.152 112.557 46.388 112.557 46.7C112.557 46.948 112.629 47.156 112.773 47.324C112.925 47.484 113.113 47.616 113.337 47.72C113.569 47.824 113.881 47.94 114.273 48.068C114.817 48.26 115.257 48.44 115.593 48.608C115.937 48.776 116.229 49.028 116.469 49.364C116.709 49.7 116.829 50.14 116.829 50.684Z" fill="#B1AFCD"/>
<rect x="64" y="73" width="185" height="67" rx="9.10004" fill="url(#paint1_linear_18_3423)"/>
<path d="M127.395 123.154C127.395 123.154 130.113 118.467 133.237 120.081C136.36 121.695 136.765 123.154 139.541 122.186C142.318 121.217 142.491 113.035 144.921 114.649C147.35 116.262 153.347 119.489 158.552 114.649" stroke="url(#paint2_linear_18_3423)" stroke-width="1.82001" stroke-linecap="round" stroke-linejoin="round"/>
<path d="M170.511 121.265L169.626 122.088C169.3 122.391 168.772 122.391 168.446 122.088C168.12 121.785 168.12 121.294 168.446 120.991L169.331 120.167L167 118H172.842V123.432L170.511 121.265Z" fill="white"/>
<path opacity="0.5" d="M204.667 95.7391V93.9154H206.273C206.425 93.9154 206.571 93.93 206.709 93.9591C206.855 93.9809 206.982 94.0246 207.092 94.0901C207.201 94.1557 207.288 94.2467 207.354 94.3631C207.419 94.4796 207.452 94.6289 207.452 94.8109C207.452 95.1385 207.354 95.3751 207.157 95.5207C206.961 95.6663 206.709 95.7391 206.404 95.7391H204.667ZM202.953 92.5832V100.38H206.731C207.081 100.38 207.419 100.336 207.747 100.249C208.082 100.162 208.377 100.027 208.631 99.845C208.893 99.663 209.101 99.4301 209.254 99.1461C209.407 98.8549 209.483 98.5128 209.483 98.1196C209.483 97.6319 209.363 97.2169 209.123 96.8748C208.89 96.5253 208.533 96.2814 208.053 96.1431C208.402 95.9757 208.664 95.7609 208.839 95.4988C209.021 95.2368 209.112 94.9092 209.112 94.516C209.112 94.152 209.05 93.8463 208.926 93.5987C208.81 93.3512 208.642 93.1547 208.424 93.0091C208.205 92.8562 207.943 92.747 207.638 92.6815C207.332 92.6159 206.993 92.5832 206.622 92.5832H202.953ZM204.667 99.0479V96.9075H206.535C206.906 96.9075 207.204 96.9949 207.43 97.1696C207.656 97.337 207.769 97.621 207.769 98.0214C207.769 98.2252 207.732 98.3926 207.659 98.5237C207.594 98.6547 207.503 98.7603 207.386 98.8404C207.27 98.9132 207.135 98.9678 206.982 99.0042C206.83 99.0333 206.669 99.0479 206.502 99.0479H204.667ZM212.367 94.0246V100.38H214.082V94.0246H216.418V92.5832H210.03V94.0246H212.367ZM222.515 95.204H224.175C224.124 94.7526 224.001 94.3522 223.804 94.0028C223.607 93.6533 223.356 93.3621 223.05 93.1292C222.752 92.8889 222.41 92.7069 222.024 92.5832C221.645 92.4594 221.241 92.3975 220.812 92.3975C220.215 92.3975 219.676 92.5031 219.196 92.7142C218.722 92.9253 218.322 93.2165 217.994 93.5878C217.667 93.9591 217.416 94.3959 217.241 94.8982C217.066 95.3933 216.979 95.932 216.979 96.5144C216.979 97.0822 217.066 97.6137 217.241 98.1087C217.416 98.5965 217.667 99.0224 217.994 99.3864C218.322 99.7504 218.722 100.038 219.196 100.249C219.676 100.453 220.215 100.555 220.812 100.555C221.292 100.555 221.733 100.482 222.133 100.336C222.534 100.191 222.883 99.9797 223.182 99.7031C223.48 99.4264 223.72 99.0915 223.902 98.6984C224.084 98.3053 224.197 97.8648 224.241 97.3771H222.581C222.515 97.9012 222.333 98.3235 222.035 98.6438C221.744 98.9641 221.336 99.1243 220.812 99.1243C220.426 99.1243 220.098 99.0515 219.829 98.9059C219.56 98.753 219.341 98.5528 219.174 98.3053C219.006 98.0578 218.883 97.7811 218.803 97.4754C218.73 97.1623 218.693 96.842 218.693 96.5144C218.693 96.1722 218.73 95.841 218.803 95.5207C218.883 95.2004 219.006 94.9164 219.174 94.6689C219.341 94.4141 219.56 94.2139 219.829 94.0683C220.098 93.9154 220.426 93.839 220.812 93.839C221.023 93.839 221.223 93.8754 221.412 93.9482C221.609 94.0137 221.784 94.1083 221.937 94.2321C222.09 94.3559 222.217 94.5015 222.319 94.6689C222.421 94.8291 222.486 95.0074 222.515 95.204Z" fill="white"/>
<path d="M142.165 90.7956C142.536 90.7956 142.897 90.7646 143.248 90.7027C143.599 90.6409 143.913 90.5377 144.192 90.3933C144.48 90.2489 144.723 90.0633 144.919 89.8364C145.125 89.6095 145.259 89.3311 145.321 89.001H146.76V99.8301H144.826V92.1879H142.165V90.7956ZM151.009 97.7416H153.159V99.8301H151.009V97.7416ZM156.738 97.0919C156.779 97.5354 156.934 97.8963 157.202 98.1748C157.48 98.4429 157.851 98.577 158.316 98.577C158.79 98.577 159.166 98.4532 159.445 98.2057C159.734 97.9479 159.955 97.6333 160.11 97.262C160.265 96.8805 160.368 96.4782 160.419 96.0554C160.481 95.6222 160.528 95.2252 160.559 94.8642L160.528 94.8332C160.291 95.2561 159.966 95.581 159.553 95.8079C159.141 96.0244 158.687 96.1327 158.192 96.1327C157.676 96.1327 157.207 96.0451 156.784 95.8697C156.371 95.6944 156.016 95.452 155.717 95.1426C155.417 94.8229 155.185 94.4413 155.02 93.9979C154.855 93.5441 154.773 93.0387 154.773 92.4818C154.773 91.9558 154.855 91.4711 155.02 91.0276C155.185 90.5738 155.428 90.1819 155.748 89.8519C156.067 89.5115 156.459 89.2485 156.923 89.0629C157.387 88.8773 157.913 88.7844 158.501 88.7844C159.264 88.7844 159.893 88.934 160.389 89.2331C160.884 89.5219 161.27 89.9241 161.549 90.4397C161.838 90.9451 162.039 91.5433 162.152 92.2343C162.266 92.9253 162.322 93.6627 162.322 94.4465C162.322 95.0962 162.25 95.7511 162.106 96.4112C161.972 97.0712 161.745 97.6746 161.425 98.2212C161.105 98.7575 160.682 99.1958 160.156 99.5361C159.641 99.8765 159.001 100.047 158.238 100.047C157.805 100.047 157.398 99.9745 157.016 99.8301C156.634 99.6857 156.294 99.4846 155.995 99.2267C155.706 98.9689 155.469 98.6595 155.283 98.2985C155.098 97.9376 154.995 97.5354 154.974 97.0919H156.738ZM158.424 90.2541C158.104 90.2541 157.826 90.316 157.588 90.4397C157.351 90.5532 157.155 90.713 157.001 90.9193C156.846 91.1256 156.727 91.3628 156.645 91.6309C156.573 91.8991 156.536 92.1775 156.536 92.4663C156.536 92.7654 156.573 93.0542 156.645 93.3326C156.727 93.6008 156.846 93.838 157.001 94.0443C157.155 94.2505 157.351 94.4207 157.588 94.5548C157.826 94.6785 158.104 94.7404 158.424 94.7404C158.754 94.7404 159.043 94.6785 159.29 94.5548C159.538 94.431 159.739 94.266 159.893 94.0597C160.059 93.8432 160.182 93.6008 160.265 93.3326C160.347 93.0542 160.389 92.7654 160.389 92.4663C160.389 92.1775 160.347 91.8991 160.265 91.6309C160.182 91.3628 160.059 91.1307 159.893 90.9348C159.739 90.7285 159.538 90.5635 159.29 90.4397C159.043 90.316 158.754 90.2541 158.424 90.2541ZM168.954 91.7392C168.913 91.2958 168.753 90.9399 168.474 90.6718C168.206 90.3933 167.84 90.2541 167.376 90.2541C167.056 90.2541 166.778 90.316 166.54 90.4397C166.314 90.5532 166.118 90.7079 165.953 90.9038C165.798 91.0998 165.669 91.3267 165.566 91.5845C165.473 91.8321 165.396 92.095 165.334 92.3735C165.272 92.652 165.225 92.9304 165.195 93.2089C165.174 93.477 165.153 93.7297 165.133 93.9669L165.164 93.9979C165.401 93.5647 165.726 93.245 166.138 93.0387C166.561 92.8221 167.015 92.7138 167.5 92.7138C168.036 92.7138 168.515 92.8067 168.938 92.9923C169.361 93.1779 169.717 93.4358 170.006 93.7658C170.305 94.0855 170.532 94.4671 170.686 94.9106C170.841 95.3541 170.918 95.8336 170.918 96.3493C170.918 96.8753 170.831 97.3652 170.655 97.819C170.49 98.2624 170.248 98.6544 169.928 98.9947C169.609 99.3247 169.227 99.5826 168.784 99.7682C168.34 99.9538 167.85 100.047 167.314 100.047C166.52 100.047 165.865 99.9023 165.349 99.6135C164.844 99.3144 164.442 98.9122 164.143 98.4068C163.854 97.8912 163.653 97.293 163.539 96.6123C163.426 95.9213 163.369 95.1787 163.369 94.3846C163.369 93.7349 163.436 93.08 163.57 92.4199C163.715 91.7599 163.947 91.1617 164.266 90.6254C164.586 90.0788 165.004 89.6353 165.519 89.295C166.045 88.9546 166.69 88.7844 167.453 88.7844C167.886 88.7844 168.294 88.8566 168.675 89.001C169.057 89.1454 169.392 89.3465 169.681 89.6044C169.98 89.8622 170.222 90.1716 170.408 90.5326C170.594 90.8935 170.697 91.2958 170.717 91.7392H168.954ZM167.252 98.577C167.572 98.577 167.85 98.5151 168.087 98.3914C168.325 98.2573 168.521 98.0871 168.675 97.8808C168.84 97.6746 168.959 97.4374 169.031 97.1692C169.114 96.8908 169.155 96.6071 169.155 96.3184C169.155 96.0296 169.114 95.7511 169.031 95.483C168.959 95.2148 168.84 94.9828 168.675 94.7868C168.521 94.5806 168.325 94.4156 168.087 94.2918C167.85 94.168 167.572 94.1062 167.252 94.1062C166.932 94.1062 166.649 94.168 166.401 94.2918C166.164 94.4052 165.963 94.5651 165.798 94.7714C165.633 94.9673 165.509 95.1994 165.427 95.4675C165.344 95.7357 165.303 96.0193 165.303 96.3184C165.303 96.6175 165.344 96.9011 165.427 97.1692C165.509 97.4374 165.633 97.6797 165.798 97.8963C165.963 98.1026 166.164 98.2676 166.401 98.3914C166.649 98.5151 166.932 98.577 167.252 98.577ZM171.981 89.001H179.391V90.4707C178.824 91.1101 178.308 91.7753 177.844 92.4663C177.38 93.147 176.972 93.8741 176.622 94.6476C176.281 95.4108 176.003 96.2204 175.786 97.0764C175.57 97.9324 175.425 98.8503 175.353 99.8301H173.419C173.481 98.9741 173.626 98.1284 173.853 97.293C174.09 96.4576 174.389 95.648 174.75 94.8642C175.121 94.0804 175.549 93.3275 176.034 92.6056C176.519 91.8836 177.039 91.2081 177.596 90.579H171.981V89.001ZM184.336 90.1768C183.862 90.1768 183.459 90.3211 183.129 90.6099C182.799 90.8884 182.634 91.2958 182.634 91.8321C182.634 92.3477 182.794 92.7448 183.114 93.0232C183.434 93.2914 183.841 93.4255 184.336 93.4255C184.831 93.4255 185.239 93.2914 185.558 93.0232C185.878 92.7448 186.038 92.3477 186.038 91.8321C186.038 91.2958 185.873 90.8884 185.543 90.6099C185.213 90.3211 184.811 90.1768 184.336 90.1768ZM184.336 100.047C183.789 100.047 183.279 99.9693 182.805 99.8146C182.34 99.6599 181.938 99.4382 181.598 99.1494C181.258 98.8503 180.989 98.4893 180.793 98.0665C180.608 97.6436 180.515 97.1692 180.515 96.6432C180.515 95.9626 180.69 95.3902 181.041 94.9261C181.402 94.462 181.887 94.1526 182.495 93.9979V93.9669C182 93.7813 181.619 93.4977 181.35 93.1161C181.093 92.7242 180.964 92.2652 180.964 91.7392C180.964 90.811 181.252 90.0891 181.83 89.5734C182.418 89.0474 183.253 88.7844 184.336 88.7844C185.419 88.7844 186.249 89.0474 186.827 89.5734C187.415 90.0891 187.709 90.811 187.709 91.7392C187.709 92.2652 187.574 92.7242 187.306 93.1161C187.049 93.4977 186.672 93.7813 186.177 93.9669V93.9979C186.786 94.1526 187.265 94.462 187.616 94.9261C187.977 95.3902 188.157 95.9626 188.157 96.6432C188.157 97.1692 188.059 97.6436 187.863 98.0665C187.678 98.4893 187.415 98.8503 187.074 99.1494C186.734 99.4382 186.327 99.6599 185.852 99.8146C185.388 99.9693 184.883 100.047 184.336 100.047ZM184.336 98.6544C184.924 98.6544 185.414 98.479 185.806 98.1284C186.198 97.7777 186.394 97.2827 186.394 96.6432C186.394 96.0451 186.198 95.581 185.806 95.2509C185.414 94.9106 184.924 94.7404 184.336 94.7404C183.748 94.7404 183.258 94.9106 182.866 95.2509C182.475 95.581 182.279 96.0451 182.279 96.6432C182.279 97.2827 182.475 97.7777 182.866 98.1284C183.258 98.479 183.748 98.6544 184.336 98.6544Z" fill="white"/>
<path d="M193.053 120.167V117.975H192.373V120.167H190.19V120.848H192.373V123.04H193.053V120.848H195.236V120.167H193.053ZM199.276 123.04V115.943H198.625C198.578 116.21 198.492 116.43 198.365 116.604C198.238 116.777 198.081 116.914 197.894 117.014C197.714 117.114 197.511 117.184 197.284 117.224C197.057 117.258 196.823 117.274 196.583 117.274V117.955H198.425V123.04H199.276ZM201.715 118.455H202.566C202.559 118.242 202.579 118.032 202.626 117.825C202.679 117.611 202.762 117.421 202.876 117.254C202.989 117.087 203.133 116.954 203.306 116.854C203.487 116.747 203.7 116.694 203.947 116.694C204.134 116.694 204.311 116.724 204.478 116.784C204.644 116.844 204.788 116.931 204.908 117.044C205.035 117.157 205.135 117.294 205.208 117.454C205.282 117.608 205.318 117.781 205.318 117.975C205.318 118.222 205.278 118.439 205.198 118.626C205.125 118.812 205.011 118.986 204.858 119.146C204.711 119.306 204.524 119.466 204.297 119.627C204.07 119.78 203.807 119.95 203.507 120.137C203.26 120.284 203.023 120.441 202.796 120.608C202.569 120.774 202.365 120.968 202.185 121.188C202.005 121.408 201.855 121.669 201.735 121.969C201.621 122.263 201.548 122.62 201.515 123.04H206.149V122.289H202.506C202.546 122.069 202.629 121.876 202.756 121.709C202.889 121.535 203.046 121.375 203.226 121.228C203.413 121.081 203.617 120.945 203.837 120.818C204.057 120.684 204.277 120.551 204.498 120.417C204.718 120.277 204.931 120.13 205.138 119.977C205.345 119.823 205.529 119.653 205.689 119.466C205.849 119.273 205.976 119.056 206.069 118.816C206.169 118.576 206.219 118.299 206.219 117.985C206.219 117.651 206.159 117.358 206.039 117.104C205.926 116.85 205.769 116.64 205.569 116.473C205.368 116.3 205.132 116.17 204.858 116.083C204.591 115.99 204.304 115.943 203.997 115.943C203.623 115.943 203.29 116.006 202.996 116.133C202.702 116.26 202.455 116.437 202.255 116.664C202.062 116.884 201.918 117.147 201.825 117.454C201.731 117.761 201.695 118.095 201.715 118.455ZM207.667 121.929V123.04H208.258C208.265 123.12 208.258 123.207 208.238 123.3C208.225 123.394 208.195 123.484 208.148 123.571C208.101 123.664 208.038 123.747 207.958 123.821C207.884 123.901 207.791 123.961 207.677 124.001V124.502C208.064 124.388 208.345 124.195 208.518 123.921C208.692 123.647 208.778 123.32 208.778 122.94V121.929H207.667ZM214.327 116.814V116.063H210.824L210.163 119.747L210.894 119.787C211.061 119.587 211.251 119.426 211.464 119.306C211.685 119.179 211.935 119.116 212.215 119.116C212.455 119.116 212.672 119.156 212.866 119.236C213.066 119.316 213.236 119.43 213.376 119.577C213.516 119.717 213.623 119.887 213.697 120.087C213.777 120.281 213.817 120.494 213.817 120.728C213.817 121.008 213.777 121.255 213.697 121.468C213.617 121.675 213.506 121.849 213.366 121.989C213.233 122.129 213.073 122.236 212.886 122.309C212.706 122.376 212.515 122.409 212.315 122.409C212.102 122.409 211.905 122.379 211.725 122.319C211.551 122.253 211.398 122.162 211.264 122.049C211.137 121.929 211.034 121.792 210.954 121.639C210.88 121.478 210.837 121.308 210.824 121.128H209.973C209.98 121.448 210.043 121.735 210.163 121.989C210.283 122.243 210.447 122.456 210.654 122.63C210.86 122.796 211.097 122.927 211.364 123.02C211.638 123.107 211.928 123.15 212.235 123.15C212.649 123.15 213.009 123.087 213.316 122.96C213.63 122.826 213.89 122.65 214.097 122.429C214.304 122.209 214.457 121.959 214.557 121.679C214.664 121.392 214.718 121.098 214.718 120.798C214.718 120.391 214.658 120.037 214.537 119.737C214.417 119.43 214.254 119.176 214.047 118.976C213.84 118.769 213.597 118.616 213.316 118.515C213.036 118.415 212.739 118.365 212.425 118.365C212.185 118.365 211.942 118.409 211.695 118.495C211.454 118.576 211.257 118.702 211.104 118.876L211.084 118.856L211.464 116.814H214.327ZM216.856 117.955C216.856 117.801 216.866 117.641 216.886 117.474C216.906 117.301 216.947 117.144 217.007 117.004C217.073 116.857 217.163 116.737 217.277 116.644C217.39 116.544 217.54 116.493 217.727 116.493C217.921 116.493 218.071 116.544 218.178 116.644C218.291 116.737 218.378 116.857 218.438 117.004C218.498 117.144 218.535 117.301 218.548 117.474C218.568 117.641 218.578 117.798 218.578 117.945C218.578 118.098 218.568 118.262 218.548 118.435C218.528 118.609 218.485 118.769 218.418 118.916C218.358 119.056 218.271 119.173 218.158 119.266C218.044 119.36 217.891 119.406 217.697 119.406C217.51 119.406 217.36 119.36 217.247 119.266C217.14 119.166 217.057 119.046 216.997 118.906C216.937 118.759 216.896 118.602 216.876 118.435C216.863 118.262 216.856 118.102 216.856 117.955ZM216.106 117.975C216.106 118.249 216.132 118.505 216.186 118.746C216.246 118.986 216.339 119.196 216.466 119.376C216.593 119.557 216.76 119.7 216.967 119.807C217.173 119.907 217.427 119.957 217.727 119.957C218.021 119.957 218.268 119.9 218.468 119.787C218.668 119.673 218.832 119.527 218.959 119.346C219.092 119.159 219.185 118.946 219.239 118.706C219.299 118.459 219.329 118.205 219.329 117.945C219.329 117.671 219.302 117.414 219.249 117.174C219.202 116.927 219.115 116.714 218.989 116.534C218.868 116.353 218.705 116.21 218.498 116.103C218.298 115.996 218.041 115.943 217.727 115.943C217.42 115.943 217.163 116 216.957 116.113C216.75 116.22 216.583 116.367 216.456 116.554C216.329 116.74 216.239 116.957 216.186 117.204C216.132 117.444 216.106 117.701 216.106 117.975ZM221.801 121.158C221.801 121.005 221.811 120.845 221.831 120.678C221.851 120.504 221.891 120.347 221.952 120.207C222.018 120.06 222.108 119.94 222.222 119.847C222.335 119.747 222.485 119.697 222.672 119.697C222.866 119.697 223.016 119.747 223.123 119.847C223.236 119.94 223.323 120.06 223.383 120.207C223.443 120.347 223.48 120.504 223.493 120.678C223.513 120.845 223.523 121.001 223.523 121.148C223.523 121.302 223.513 121.465 223.493 121.639C223.473 121.812 223.43 121.972 223.363 122.119C223.303 122.259 223.216 122.376 223.103 122.469C222.989 122.563 222.836 122.61 222.642 122.61C222.455 122.61 222.305 122.563 222.192 122.469C222.085 122.369 222.002 122.249 221.942 122.109C221.881 121.962 221.841 121.805 221.821 121.639C221.808 121.465 221.801 121.305 221.801 121.158ZM221.051 121.178C221.051 121.452 221.077 121.709 221.131 121.949C221.191 122.189 221.284 122.399 221.411 122.58C221.538 122.753 221.705 122.893 221.912 123C222.118 123.1 222.372 123.15 222.672 123.15C222.966 123.15 223.213 123.097 223.413 122.99C223.613 122.877 223.777 122.73 223.904 122.55C224.037 122.363 224.13 122.149 224.184 121.909C224.244 121.662 224.274 121.408 224.274 121.148C224.274 120.875 224.247 120.618 224.194 120.377C224.147 120.13 224.06 119.917 223.934 119.737C223.813 119.557 223.65 119.413 223.443 119.306C223.243 119.2 222.986 119.146 222.672 119.146C222.365 119.146 222.108 119.203 221.901 119.316C221.695 119.423 221.528 119.57 221.401 119.757C221.274 119.944 221.184 120.16 221.131 120.407C221.077 120.648 221.051 120.905 221.051 121.178ZM222.452 115.813L217.067 123.25H217.928L223.303 115.813H222.452Z" fill="white"/>
<g filter="url(#filter1_d_18_3423)">
<path fill-rule="evenodd" clip-rule="evenodd" d="M87.6451 102.39L87.6598 105.186H91.9741C92.7403 105.186 93.3613 104.607 93.3575 103.894L93.3564 103.682C93.3527 102.969 92.7257 102.39 91.9593 102.39H88.2357H87.6451ZM93.9053 109.436L93.9041 109.212C93.9 108.417 93.2015 107.772 92.3469 107.772H91.9878H87.6736L87.69 110.876H92.3631C93.2177 110.876 93.9095 110.23 93.9053 109.436ZM95.2744 106.262C96.1329 106.998 96.6773 108.046 96.6835 109.212L96.6847 109.436C96.6963 111.655 94.7636 113.461 92.3765 113.461H92.2708L92.2769 114.649H89.4975L89.4912 113.461H88.352L88.3583 114.649H85.5788L85.5726 113.461H84.9237H83.5453L83.5317 110.876H84.9102L84.894 107.772L84.8803 105.186L84.8656 102.39H83.4872L83.4736 99.8044H85.5009L85.4933 98.3513H88.2728L88.2804 99.8044H89.4197L89.412 98.3513H92.1916L92.1992 99.8166C94.3813 99.9397 96.1253 101.623 96.1361 103.682L96.1371 103.894C96.1418 104.786 95.8174 105.606 95.2744 106.262Z" fill="white"/>
</g>
<path fill-rule="evenodd" clip-rule="evenodd" d="M291.713 102.521L283.447 105.806L291.713 110.072L299.975 105.806L291.713 102.521Z" fill="#010101" fill-opacity="0.6"/>
<path fill-rule="evenodd" clip-rule="evenodd" d="M283.447 105.806L291.713 110.072V93.8242L283.447 105.806Z" fill="#403EAB"/>
<path fill-rule="evenodd" clip-rule="evenodd" d="M291.713 93.8242V110.072L299.976 105.806L291.713 93.8242Z" fill="#7473D0"/>
<path fill-rule="evenodd" clip-rule="evenodd" d="M283.447 107.174L291.713 117.347V111.44L283.447 107.174Z" fill="#403EAB"/>
<path fill-rule="evenodd" clip-rule="evenodd" d="M291.713 111.44V117.347L299.982 107.174L291.713 111.44Z" fill="#7473D0"/>
<path d="M396.718 92.5831V100.38H402.637V98.9386H398.433V97.0276H402.211V95.6953H398.433V94.0246H402.55V92.5831H396.718ZM405.525 94.0246V100.38H407.239V94.0246H409.576V92.5831H403.188V94.0246H405.525ZM410.475 92.5831V100.38H412.19V97.0167H415.345V100.38H417.06V92.5831H415.345V95.5752H412.19V92.5831H410.475Z" fill="#7473D0"/>
<path d="M335.184 93.6547H336.499C336.488 93.3247 336.519 92.9998 336.592 92.6801C336.674 92.3501 336.803 92.0562 336.978 91.7983C337.154 91.5405 337.375 91.3342 337.644 91.1795C337.922 91.0145 338.252 90.932 338.634 90.932C338.922 90.932 339.196 90.9784 339.454 91.0712C339.711 91.164 339.933 91.2981 340.119 91.4734C340.315 91.6488 340.469 91.8602 340.583 92.1077C340.696 92.3449 340.753 92.6131 340.753 92.9122C340.753 93.2938 340.691 93.6289 340.567 93.9177C340.454 94.2065 340.279 94.4746 340.041 94.7222C339.814 94.9697 339.526 95.2172 339.175 95.4647C338.824 95.7019 338.417 95.9649 337.953 96.2537C337.571 96.4806 337.205 96.723 336.855 96.9808C336.504 97.2386 336.189 97.5377 335.911 97.8781C335.632 98.2184 335.4 98.6206 335.215 99.0847C335.039 99.5385 334.926 100.09 334.874 100.74H342.037V99.5798H336.406C336.468 99.2394 336.597 98.9403 336.793 98.6825C336.999 98.4144 337.241 98.1668 337.52 97.9399C337.809 97.713 338.123 97.5016 338.463 97.3057C338.804 97.0994 339.144 96.8931 339.484 96.6869C339.825 96.4703 340.155 96.2434 340.475 96.0062C340.794 95.769 341.078 95.506 341.325 95.2172C341.573 94.9181 341.769 94.5829 341.913 94.2116C342.068 93.8404 342.145 93.4124 342.145 92.9276C342.145 92.412 342.052 91.9582 341.867 91.5663C341.692 91.1744 341.449 90.8495 341.14 90.5917C340.83 90.3235 340.464 90.1224 340.041 89.9883C339.629 89.8439 339.185 89.7717 338.711 89.7717C338.133 89.7717 337.618 89.8697 337.164 90.0657C336.71 90.2616 336.329 90.5349 336.019 90.8856C335.72 91.2259 335.498 91.6333 335.354 92.1077C335.21 92.5821 335.153 93.0978 335.184 93.6547ZM346.472 94.4746V95.5885C346.719 95.5575 346.982 95.5421 347.261 95.5421C347.591 95.5421 347.895 95.5885 348.173 95.6813C348.462 95.7638 348.71 95.8979 348.916 96.0835C349.122 96.2589 349.287 96.4806 349.411 96.7487C349.535 97.0066 349.597 97.3057 349.597 97.646C349.597 97.976 349.53 98.2751 349.396 98.5433C349.272 98.8011 349.102 99.0228 348.885 99.2085C348.668 99.3838 348.416 99.523 348.127 99.6262C347.838 99.719 347.534 99.7654 347.214 99.7654C346.461 99.7654 345.889 99.5437 345.497 99.1002C345.105 98.6464 344.899 98.0637 344.878 97.3521H343.563C343.553 97.9193 343.63 98.4247 343.795 98.8681C343.971 99.3116 344.218 99.6881 344.538 99.9975C344.858 100.297 345.244 100.523 345.698 100.678C346.152 100.833 346.657 100.91 347.214 100.91C347.73 100.91 348.215 100.843 348.668 100.709C349.133 100.565 349.535 100.353 349.875 100.075C350.215 99.7963 350.484 99.4508 350.68 99.0383C350.886 98.6155 350.989 98.1307 350.989 97.5841C350.989 96.9241 350.824 96.3517 350.494 95.8669C350.174 95.3822 349.679 95.0677 349.009 94.9233V94.8923C349.442 94.6964 349.803 94.4076 350.092 94.026C350.38 93.6444 350.525 93.2061 350.525 92.7111C350.525 92.2057 350.437 91.7674 350.262 91.3961C350.097 91.0248 349.865 90.7206 349.566 90.4834C349.267 90.2462 348.911 90.0708 348.498 89.9574C348.096 89.8336 347.658 89.7717 347.183 89.7717C346.637 89.7717 346.152 89.8594 345.729 90.0347C345.317 90.2101 344.971 90.4524 344.693 90.7618C344.414 91.0712 344.198 91.4425 344.043 91.8757C343.899 92.3088 343.816 92.7884 343.795 93.3144H345.11C345.11 92.9947 345.152 92.6904 345.234 92.4017C345.317 92.1129 345.44 91.8602 345.605 91.6436C345.781 91.427 345.997 91.2569 346.255 91.1331C346.523 90.999 346.833 90.932 347.183 90.932C347.74 90.932 348.204 91.0815 348.576 91.3806C348.947 91.6694 349.133 92.1077 349.133 92.6956C349.133 92.9844 349.076 93.2422 348.962 93.4691C348.849 93.696 348.694 93.8868 348.498 94.0415C348.313 94.1859 348.091 94.2993 347.833 94.3818C347.586 94.454 347.323 94.4901 347.044 94.4901H346.766C346.714 94.4901 346.663 94.4901 346.611 94.4901C346.57 94.4901 346.523 94.485 346.472 94.4746ZM352.979 99.0228V100.74H354.697V99.0228H352.979ZM356.682 93.6547H357.997C357.986 93.3247 358.017 92.9998 358.09 92.6801C358.172 92.3501 358.301 92.0562 358.476 91.7983C358.652 91.5405 358.873 91.3342 359.141 91.1795C359.42 91.0145 359.75 90.932 360.132 90.932C360.42 90.932 360.694 90.9784 360.951 91.0712C361.209 91.164 361.431 91.2981 361.617 91.4734C361.813 91.6488 361.967 91.8602 362.081 92.1077C362.194 92.3449 362.251 92.6131 362.251 92.9122C362.251 93.2938 362.189 93.6289 362.065 93.9177C361.952 94.2065 361.777 94.4746 361.539 94.7222C361.312 94.9697 361.024 95.2172 360.673 95.4647C360.322 95.7019 359.915 95.9649 359.451 96.2537C359.069 96.4806 358.703 96.723 358.352 96.9808C358.002 97.2386 357.687 97.5377 357.409 97.8781C357.13 98.2184 356.898 98.6206 356.713 99.0847C356.537 99.5385 356.424 100.09 356.372 100.74H363.535V99.5798H357.904C357.966 99.2394 358.095 98.9403 358.291 98.6825C358.497 98.4144 358.739 98.1668 359.018 97.9399C359.306 97.713 359.621 97.5016 359.961 97.3057C360.302 97.0994 360.642 96.8931 360.982 96.6869C361.323 96.4703 361.653 96.2434 361.972 96.0062C362.292 95.769 362.576 95.506 362.823 95.2172C363.071 94.9181 363.267 94.5829 363.411 94.2116C363.566 93.8404 363.643 93.4124 363.643 92.9276C363.643 92.412 363.55 91.9582 363.365 91.5663C363.189 91.1744 362.947 90.8495 362.638 90.5917C362.328 90.3235 361.962 90.1224 361.539 89.9883C361.127 89.8439 360.683 89.7717 360.209 89.7717C359.631 89.7717 359.116 89.8697 358.662 90.0657C358.208 90.2616 357.827 90.5349 357.517 90.8856C357.218 91.2259 356.996 91.6333 356.852 92.1077C356.708 92.5821 356.651 93.0978 356.682 93.6547ZM367.97 94.4746V95.5885C368.217 95.5575 368.48 95.5421 368.759 95.5421C369.089 95.5421 369.393 95.5885 369.671 95.6813C369.96 95.7638 370.208 95.8979 370.414 96.0835C370.62 96.2589 370.785 96.4806 370.909 96.7487C371.033 97.0066 371.095 97.3057 371.095 97.646C371.095 97.976 371.028 98.2751 370.894 98.5433C370.77 98.8011 370.6 99.0228 370.383 99.2085C370.166 99.3838 369.914 99.523 369.625 99.6262C369.336 99.719 369.032 99.7654 368.712 99.7654C367.959 99.7654 367.387 99.5437 366.995 99.1002C366.603 98.6464 366.397 98.0637 366.376 97.3521H365.061C365.051 97.9193 365.128 98.4247 365.293 98.8681C365.469 99.3116 365.716 99.6881 366.036 99.9975C366.356 100.297 366.742 100.523 367.196 100.678C367.65 100.833 368.155 100.91 368.712 100.91C369.228 100.91 369.713 100.843 370.166 100.709C370.631 100.565 371.033 100.353 371.373 100.075C371.713 99.7963 371.982 99.4508 372.178 99.0383C372.384 98.6155 372.487 98.1307 372.487 97.5841C372.487 96.9241 372.322 96.3517 371.992 95.8669C371.672 95.3822 371.177 95.0677 370.507 94.9233V94.8923C370.94 94.6964 371.301 94.4076 371.59 94.026C371.878 93.6444 372.023 93.2061 372.023 92.7111C372.023 92.2057 371.935 91.7674 371.76 91.3961C371.595 91.0248 371.363 90.7206 371.064 90.4834C370.765 90.2462 370.409 90.0708 369.996 89.9574C369.594 89.8336 369.156 89.7717 368.681 89.7717C368.135 89.7717 367.65 89.8594 367.227 90.0347C366.815 90.2101 366.469 90.4524 366.191 90.7618C365.912 91.0712 365.696 91.4425 365.541 91.8757C365.396 92.3088 365.314 92.7884 365.293 93.3144H366.608C366.608 92.9947 366.65 92.6904 366.732 92.4017C366.815 92.1129 366.938 91.8602 367.103 91.6436C367.279 91.427 367.495 91.2569 367.753 91.1331C368.021 90.999 368.331 90.932 368.681 90.932C369.238 90.932 369.702 91.0815 370.074 91.3806C370.445 91.6694 370.631 92.1077 370.631 92.6956C370.631 92.9844 370.574 93.2422 370.46 93.4691C370.347 93.696 370.192 93.8868 369.996 94.0415C369.811 94.1859 369.589 94.2993 369.331 94.3818C369.084 94.454 368.821 94.4901 368.542 94.4901H368.264C368.212 94.4901 368.16 94.4901 368.109 94.4901C368.068 94.4901 368.021 94.485 367.97 94.4746ZM378.438 97.0117H374.756L378.407 91.6436H378.438V97.0117ZM379.675 97.0117V89.7717H378.623L373.627 96.9034V98.172H378.438V100.74H379.675V98.172H381.16V97.0117H379.675Z" fill="white"/>
<g filter="url(#filter2_f_18_3423)">
<ellipse rx="7.68452" ry="4.15898" transform="matrix(0.984055 -0.177867 0.204616 0.978842 352.544 116.026)" fill="url(#paint3_linear_18_3423)"/>
</g>
<path d="M325.289 124.154C325.289 124.154 328.008 119.467 331.131 121.081C334.255 122.695 334.66 124.154 337.436 123.186C340.212 122.217 340.386 114.035 342.816 115.649C345.245 117.262 351.241 120.489 356.447 115.649" stroke="url(#paint4_linear_18_3423)" stroke-width="1.82001" stroke-linecap="round" stroke-linejoin="round"/>
<path d="M368.511 122.265L367.626 123.088C367.3 123.391 366.772 123.391 366.446 123.088C366.12 122.785 366.12 122.294 366.446 121.991L367.331 121.167L365 119H370.842V124.432L368.511 122.265Z" fill="#309AFF"/>
<path d="M381.212 121.167V118.975H380.531V121.167H378.349V121.848H380.531V124.04H381.212V121.848H383.394V121.167H381.212ZM386.053 119.986V120.707C386.213 120.687 386.383 120.677 386.563 120.677C386.777 120.677 386.974 120.707 387.154 120.767C387.341 120.82 387.501 120.907 387.634 121.027C387.768 121.14 387.875 121.284 387.955 121.457C388.035 121.624 388.075 121.818 388.075 122.038C388.075 122.252 388.031 122.445 387.945 122.619C387.865 122.785 387.754 122.929 387.614 123.049C387.474 123.162 387.311 123.253 387.124 123.319C386.937 123.379 386.74 123.409 386.533 123.409C386.046 123.409 385.676 123.266 385.422 122.979C385.168 122.685 385.035 122.308 385.022 121.848H384.171C384.164 122.215 384.214 122.542 384.321 122.829C384.434 123.116 384.595 123.359 384.801 123.56C385.008 123.753 385.259 123.9 385.552 124C385.846 124.1 386.173 124.15 386.533 124.15C386.867 124.15 387.181 124.107 387.474 124.02C387.774 123.927 388.035 123.79 388.255 123.61C388.475 123.429 388.649 123.206 388.775 122.939C388.909 122.665 388.976 122.352 388.976 121.998C388.976 121.571 388.869 121.201 388.655 120.887C388.448 120.573 388.128 120.37 387.694 120.276V120.256C387.975 120.129 388.208 119.943 388.395 119.696C388.582 119.449 388.675 119.165 388.675 118.845C388.675 118.518 388.619 118.234 388.505 117.994C388.398 117.754 388.248 117.557 388.055 117.403C387.861 117.25 387.631 117.136 387.364 117.063C387.104 116.983 386.82 116.943 386.513 116.943C386.159 116.943 385.846 117 385.572 117.113C385.305 117.227 385.082 117.383 384.902 117.584C384.721 117.784 384.581 118.024 384.481 118.304C384.388 118.585 384.334 118.895 384.321 119.235H385.172C385.172 119.028 385.199 118.831 385.252 118.645C385.305 118.458 385.385 118.294 385.492 118.154C385.606 118.014 385.746 117.904 385.913 117.824C386.086 117.737 386.286 117.694 386.513 117.694C386.874 117.694 387.174 117.79 387.414 117.984C387.654 118.171 387.774 118.454 387.774 118.835C387.774 119.022 387.738 119.189 387.664 119.335C387.591 119.482 387.491 119.606 387.364 119.706C387.244 119.799 387.1 119.873 386.934 119.926C386.773 119.973 386.603 119.996 386.423 119.996H386.243C386.21 119.996 386.176 119.996 386.143 119.996C386.116 119.996 386.086 119.993 386.053 119.986ZM390.774 122.328H389.923C389.977 122.942 390.2 123.399 390.594 123.7C390.988 124 391.481 124.15 392.075 124.15C392.936 124.15 393.56 123.823 393.947 123.169C394.341 122.509 394.538 121.564 394.538 120.336C394.538 119.662 394.471 119.108 394.338 118.675C394.211 118.234 394.037 117.887 393.817 117.634C393.597 117.38 393.34 117.203 393.046 117.103C392.753 116.996 392.439 116.943 392.105 116.943C391.765 116.943 391.451 117 391.164 117.113C390.878 117.227 390.631 117.387 390.424 117.594C390.217 117.794 390.057 118.037 389.943 118.324C389.83 118.605 389.773 118.915 389.773 119.255C389.773 119.602 389.82 119.923 389.913 120.216C390.013 120.51 390.157 120.76 390.344 120.967C390.537 121.174 390.774 121.337 391.054 121.457C391.335 121.571 391.655 121.628 392.015 121.628C392.362 121.628 392.683 121.541 392.976 121.367C393.27 121.187 393.497 120.947 393.657 120.647L393.677 120.667C393.65 121.594 393.507 122.285 393.247 122.739C392.986 123.186 392.596 123.409 392.075 123.409C391.735 123.409 391.441 123.316 391.195 123.129C390.948 122.942 390.807 122.675 390.774 122.328ZM393.527 119.315C393.527 119.522 393.493 119.722 393.427 119.916C393.36 120.103 393.263 120.27 393.136 120.416C393.01 120.557 392.856 120.67 392.676 120.757C392.496 120.837 392.296 120.877 392.075 120.877C391.869 120.877 391.678 120.837 391.505 120.757C391.338 120.67 391.191 120.557 391.064 120.416C390.944 120.276 390.848 120.116 390.774 119.936C390.707 119.756 390.674 119.569 390.674 119.375C390.674 119.155 390.697 118.945 390.744 118.745C390.797 118.545 390.878 118.368 390.984 118.214C391.098 118.054 391.241 117.927 391.415 117.834C391.595 117.74 391.812 117.694 392.065 117.694C392.306 117.694 392.516 117.737 392.696 117.824C392.876 117.911 393.026 118.031 393.146 118.184C393.273 118.331 393.367 118.501 393.427 118.695C393.493 118.888 393.527 119.095 393.527 119.315ZM395.826 122.929V124.04H396.937V122.929H395.826ZM401.925 118.755H402.776C402.723 118.167 402.522 117.72 402.175 117.413C401.828 117.1 401.361 116.943 400.774 116.943C400.267 116.943 399.846 117.05 399.513 117.263C399.179 117.477 398.912 117.76 398.712 118.114C398.512 118.468 398.368 118.875 398.281 119.335C398.201 119.789 398.161 120.26 398.161 120.747C398.161 121.12 398.188 121.507 398.241 121.908C398.301 122.308 398.418 122.675 398.592 123.009C398.765 123.343 399.012 123.616 399.333 123.83C399.653 124.043 400.077 124.15 400.604 124.15C401.051 124.15 401.425 124.077 401.725 123.93C402.032 123.776 402.275 123.586 402.456 123.359C402.643 123.126 402.776 122.869 402.856 122.589C402.936 122.308 402.976 122.038 402.976 121.778C402.976 121.451 402.926 121.147 402.826 120.867C402.726 120.587 402.582 120.343 402.396 120.136C402.215 119.929 401.989 119.769 401.715 119.656C401.448 119.536 401.144 119.475 400.804 119.475C400.417 119.475 400.073 119.549 399.773 119.696C399.479 119.842 399.232 120.079 399.032 120.406L399.012 120.386C399.019 120.113 399.046 119.819 399.092 119.505C399.139 119.192 399.222 118.902 399.343 118.635C399.469 118.361 399.643 118.137 399.863 117.964C400.083 117.784 400.374 117.694 400.734 117.694C401.074 117.694 401.348 117.79 401.555 117.984C401.762 118.177 401.885 118.434 401.925 118.755ZM400.644 120.226C400.884 120.226 401.094 120.27 401.274 120.356C401.455 120.443 401.605 120.56 401.725 120.707C401.845 120.847 401.932 121.017 401.985 121.217C402.045 121.411 402.075 121.618 402.075 121.838C402.075 122.045 402.042 122.245 401.975 122.438C401.915 122.625 401.825 122.792 401.705 122.939C401.585 123.086 401.435 123.203 401.254 123.289C401.081 123.369 400.877 123.409 400.644 123.409C400.41 123.409 400.2 123.369 400.013 123.289C399.833 123.203 399.68 123.089 399.553 122.949C399.433 122.809 399.339 122.642 399.272 122.448C399.206 122.255 399.172 122.048 399.172 121.828C399.172 121.608 399.202 121.401 399.262 121.207C399.329 121.007 399.426 120.837 399.553 120.697C399.68 120.55 399.833 120.436 400.013 120.356C400.193 120.27 400.404 120.226 400.644 120.226ZM404.685 122.328H403.834C403.887 122.942 404.111 123.399 404.504 123.7C404.898 124 405.392 124.15 405.986 124.15C406.847 124.15 407.471 123.823 407.858 123.169C408.251 122.509 408.448 121.564 408.448 120.336C408.448 119.662 408.382 119.108 408.248 118.675C408.121 118.234 407.948 117.887 407.728 117.634C407.507 117.38 407.25 117.203 406.957 117.103C406.663 116.996 406.35 116.943 406.016 116.943C405.676 116.943 405.362 117 405.075 117.113C404.788 117.227 404.541 117.387 404.334 117.594C404.127 117.794 403.967 118.037 403.854 118.324C403.74 118.605 403.684 118.915 403.684 119.255C403.684 119.602 403.73 119.923 403.824 120.216C403.924 120.51 404.067 120.76 404.254 120.967C404.448 121.174 404.685 121.337 404.965 121.457C405.245 121.571 405.565 121.628 405.926 121.628C406.273 121.628 406.593 121.541 406.887 121.367C407.18 121.187 407.407 120.947 407.567 120.647L407.587 120.667C407.561 121.594 407.417 122.285 407.157 122.739C406.897 123.186 406.506 123.409 405.986 123.409C405.646 123.409 405.352 123.316 405.105 123.129C404.858 122.942 404.718 122.675 404.685 122.328ZM407.437 119.315C407.437 119.522 407.404 119.722 407.337 119.916C407.27 120.103 407.174 120.27 407.047 120.416C406.92 120.557 406.767 120.67 406.586 120.757C406.406 120.837 406.206 120.877 405.986 120.877C405.779 120.877 405.589 120.837 405.415 120.757C405.248 120.67 405.102 120.557 404.975 120.416C404.855 120.276 404.758 120.116 404.685 119.936C404.618 119.756 404.584 119.569 404.584 119.375C404.584 119.155 404.608 118.945 404.655 118.745C404.708 118.545 404.788 118.368 404.895 118.214C405.008 118.054 405.152 117.927 405.325 117.834C405.505 117.74 405.722 117.694 405.976 117.694C406.216 117.694 406.426 117.737 406.606 117.824C406.787 117.911 406.937 118.031 407.057 118.184C407.184 118.331 407.277 118.501 407.337 118.695C407.404 118.888 407.437 119.095 407.437 119.315ZM410.577 118.955C410.577 118.801 410.587 118.641 410.607 118.474C410.627 118.301 410.667 118.144 410.727 118.004C410.794 117.857 410.884 117.737 410.998 117.644C411.111 117.544 411.261 117.493 411.448 117.493C411.641 117.493 411.792 117.544 411.898 117.644C412.012 117.737 412.099 117.857 412.159 118.004C412.219 118.144 412.255 118.301 412.269 118.474C412.289 118.641 412.299 118.798 412.299 118.945C412.299 119.098 412.289 119.262 412.269 119.435C412.249 119.609 412.205 119.769 412.139 119.916C412.079 120.056 411.992 120.173 411.878 120.266C411.765 120.36 411.611 120.406 411.418 120.406C411.231 120.406 411.081 120.36 410.967 120.266C410.861 120.166 410.777 120.046 410.717 119.906C410.657 119.759 410.617 119.602 410.597 119.435C410.584 119.262 410.577 119.102 410.577 118.955ZM409.826 118.975C409.826 119.249 409.853 119.505 409.906 119.746C409.966 119.986 410.06 120.196 410.187 120.376C410.313 120.557 410.48 120.7 410.687 120.807C410.894 120.907 411.148 120.957 411.448 120.957C411.742 120.957 411.989 120.9 412.189 120.787C412.389 120.673 412.552 120.527 412.679 120.346C412.813 120.159 412.906 119.946 412.959 119.706C413.02 119.459 413.05 119.205 413.05 118.945C413.05 118.671 413.023 118.414 412.969 118.174C412.923 117.927 412.836 117.714 412.709 117.534C412.589 117.353 412.426 117.21 412.219 117.103C412.019 116.996 411.762 116.943 411.448 116.943C411.141 116.943 410.884 117 410.677 117.113C410.47 117.22 410.303 117.367 410.177 117.554C410.05 117.74 409.96 117.957 409.906 118.204C409.853 118.444 409.826 118.701 409.826 118.975ZM415.522 122.158C415.522 122.005 415.532 121.845 415.552 121.678C415.572 121.504 415.612 121.347 415.672 121.207C415.739 121.06 415.829 120.94 415.942 120.847C416.056 120.747 416.206 120.697 416.393 120.697C416.586 120.697 416.737 120.747 416.843 120.847C416.957 120.94 417.044 121.06 417.104 121.207C417.164 121.347 417.2 121.504 417.214 121.678C417.234 121.845 417.244 122.001 417.244 122.148C417.244 122.302 417.234 122.465 417.214 122.639C417.194 122.812 417.15 122.972 417.084 123.119C417.024 123.259 416.937 123.376 416.823 123.469C416.71 123.563 416.556 123.61 416.363 123.61C416.176 123.61 416.026 123.563 415.912 123.469C415.806 123.369 415.722 123.249 415.662 123.109C415.602 122.962 415.562 122.805 415.542 122.639C415.529 122.465 415.522 122.305 415.522 122.158ZM414.771 122.178C414.771 122.452 414.798 122.709 414.851 122.949C414.911 123.189 415.005 123.399 415.132 123.58C415.258 123.753 415.425 123.893 415.632 124C415.839 124.1 416.093 124.15 416.393 124.15C416.687 124.15 416.933 124.097 417.134 123.99C417.334 123.877 417.497 123.73 417.624 123.55C417.758 123.363 417.851 123.149 417.904 122.909C417.965 122.662 417.995 122.408 417.995 122.148C417.995 121.875 417.968 121.618 417.914 121.377C417.868 121.13 417.781 120.917 417.654 120.737C417.534 120.557 417.371 120.413 417.164 120.306C416.964 120.2 416.707 120.146 416.393 120.146C416.086 120.146 415.829 120.203 415.622 120.316C415.415 120.423 415.248 120.57 415.122 120.757C414.995 120.944 414.905 121.16 414.851 121.407C414.798 121.648 414.771 121.905 414.771 122.178ZM416.173 116.813L410.787 124.25H411.648L417.024 116.813H416.173Z" fill="#309AFF"/>
<rect x="263.455" y="73.455" width="184.09" height="66.09" rx="8.64504" stroke="#7473D0" stroke-width="0.910004"/>
<path d="M600.879 96.2959L598.16 100.38H600.082L601.818 97.6828L603.522 100.38H605.564L602.845 96.3069L605.345 92.5831H603.467L601.884 95.0729L600.355 92.5831H598.367L600.879 96.2959ZM607.966 96.1103V93.9154H609.844C610.237 93.9154 610.532 94.0027 610.729 94.1774C610.925 94.3449 611.024 94.6179 611.024 94.9964C611.024 95.3896 610.925 95.6735 610.729 95.8482C610.532 96.0229 610.237 96.1103 609.844 96.1103H607.966ZM606.252 92.5831V100.38H607.966V97.3333H609.68C610.11 97.3333 610.419 97.428 610.609 97.6173C610.798 97.8065 610.922 98.105 610.98 98.5127C611.024 98.8257 611.056 99.1533 611.078 99.4955C611.1 99.8377 611.158 100.133 611.253 100.38H612.967C612.887 100.271 612.825 100.14 612.782 99.9869C612.745 99.8268 612.716 99.6593 612.694 99.4846C612.68 99.3099 612.669 99.1388 612.662 98.9713C612.654 98.8039 612.647 98.6583 612.64 98.5345C612.625 98.338 612.596 98.1414 612.552 97.9449C612.516 97.7483 612.454 97.5699 612.367 97.4098C612.279 97.2423 612.167 97.1004 612.028 96.9839C611.89 96.8601 611.715 96.7691 611.504 96.7109V96.6891C611.941 96.5143 612.254 96.2595 612.443 95.9247C612.64 95.5898 612.738 95.193 612.738 94.7344C612.738 94.4359 612.683 94.1592 612.574 93.9044C612.472 93.6424 612.319 93.413 612.116 93.2165C611.919 93.0199 611.679 92.867 611.395 92.7578C611.118 92.6414 610.805 92.5831 610.456 92.5831H606.252ZM615.847 96.2523V93.9154H617.179C617.376 93.9154 617.565 93.9299 617.747 93.959C617.929 93.9882 618.089 94.0464 618.227 94.1338C618.366 94.2138 618.475 94.3303 618.555 94.4832C618.642 94.6361 618.686 94.8363 618.686 95.0838C618.686 95.3313 618.642 95.5315 618.555 95.6844C618.475 95.8373 618.366 95.9574 618.227 96.0448C618.089 96.1249 617.929 96.1795 617.747 96.2086C617.565 96.2377 617.376 96.2523 617.179 96.2523H615.847ZM614.132 92.5831V100.38H615.847V97.5845H617.649C618.136 97.5845 618.551 97.5153 618.893 97.377C619.236 97.2314 619.512 97.0421 619.723 96.8092C619.942 96.5762 620.098 96.3105 620.193 96.012C620.295 95.7063 620.346 95.3969 620.346 95.0838C620.346 94.7635 620.295 94.4541 620.193 94.1556C620.098 93.8571 619.942 93.5914 619.723 93.3584C619.512 93.1255 619.236 92.9398 618.893 92.8015C618.551 92.6559 618.136 92.5831 617.649 92.5831H614.132Z" fill="#7473D0"/>
<path d="M533.121 94.4746V95.5885C533.369 95.5575 533.632 95.5421 533.91 95.5421C534.24 95.5421 534.545 95.5885 534.823 95.6813C535.112 95.7638 535.359 95.8979 535.566 96.0835C535.772 96.2589 535.937 96.4806 536.061 96.7487C536.185 97.0066 536.246 97.3057 536.246 97.646C536.246 97.976 536.179 98.2751 536.045 98.5433C535.922 98.8011 535.751 99.0228 535.535 99.2085C535.318 99.3838 535.066 99.523 534.777 99.6262C534.488 99.719 534.184 99.7654 533.864 99.7654C533.111 99.7654 532.539 99.5437 532.147 99.1002C531.755 98.6464 531.549 98.0637 531.528 97.3521H530.213C530.203 97.9193 530.28 98.4247 530.445 98.8681C530.62 99.3116 530.868 99.6881 531.188 99.9975C531.507 100.297 531.894 100.523 532.348 100.678C532.802 100.833 533.307 100.91 533.864 100.91C534.38 100.91 534.864 100.843 535.318 100.709C535.782 100.565 536.185 100.353 536.525 100.075C536.865 99.7963 537.133 99.4508 537.329 99.0383C537.536 98.6155 537.639 98.1307 537.639 97.5841C537.639 96.9241 537.474 96.3517 537.144 95.8669C536.824 95.3822 536.329 95.0677 535.659 94.9233V94.8923C536.092 94.6964 536.453 94.4076 536.741 94.026C537.03 93.6444 537.175 93.2061 537.175 92.7111C537.175 92.2057 537.087 91.7674 536.912 91.3961C536.747 91.0248 536.515 90.7206 536.215 90.4834C535.916 90.2462 535.561 90.0708 535.148 89.9574C534.746 89.8336 534.308 89.7717 533.833 89.7717C533.286 89.7717 532.802 89.8594 532.379 90.0347C531.966 90.2101 531.621 90.4524 531.342 90.7618C531.064 91.0712 530.847 91.4425 530.693 91.8757C530.548 92.3088 530.466 92.7884 530.445 93.3144H531.76C531.76 92.9947 531.801 92.6904 531.884 92.4017C531.966 92.1129 532.09 91.8602 532.255 91.6436C532.43 91.427 532.647 91.2569 532.905 91.1331C533.173 90.999 533.482 90.932 533.833 90.932C534.39 90.932 534.854 91.0815 535.225 91.3806C535.597 91.6694 535.782 92.1077 535.782 92.6956C535.782 92.9844 535.726 93.2422 535.612 93.4691C535.499 93.696 535.344 93.8868 535.148 94.0415C534.962 94.1859 534.741 94.2993 534.483 94.3818C534.235 94.454 533.972 94.4901 533.694 94.4901H533.415C533.364 94.4901 533.312 94.4901 533.261 94.4901C533.219 94.4901 533.173 94.485 533.121 94.4746ZM540.743 92.6182C540.743 92.3398 540.795 92.0974 540.898 91.8911C541.001 91.6849 541.135 91.5095 541.3 91.3652C541.475 91.2208 541.682 91.1125 541.919 91.0403C542.156 90.9681 542.403 90.932 542.661 90.932C543.198 90.932 543.636 91.0764 543.976 91.3652C544.327 91.6436 544.502 92.0613 544.502 92.6182C544.502 93.1752 544.332 93.6083 543.992 93.9177C543.651 94.2271 543.218 94.3818 542.692 94.3818C542.424 94.3818 542.171 94.3457 541.934 94.2735C541.697 94.2013 541.491 94.093 541.315 93.9487C541.14 93.8043 541.001 93.6238 540.898 93.4072C540.795 93.1803 540.743 92.9173 540.743 92.6182ZM539.351 92.5718C539.351 93.0669 539.49 93.5258 539.768 93.9487C540.047 94.3612 540.418 94.6603 540.882 94.8459C540.263 95.0625 539.789 95.4132 539.459 95.8979C539.129 96.3723 538.964 96.9344 538.964 97.5841C538.964 98.141 539.057 98.6309 539.242 99.0538C539.438 99.4663 539.701 99.8118 540.031 100.09C540.372 100.369 540.769 100.575 541.223 100.709C541.676 100.843 542.166 100.91 542.692 100.91C543.198 100.91 543.672 100.838 544.116 100.694C544.559 100.549 544.941 100.338 545.26 100.059C545.59 99.7706 545.848 99.4199 546.034 99.0074C546.23 98.5948 546.328 98.1204 546.328 97.5841C546.328 96.9034 546.168 96.331 545.848 95.8669C545.528 95.3925 545.039 95.0522 544.378 94.8459C544.843 94.6397 545.209 94.3354 545.477 93.9332C545.755 93.5207 545.895 93.0669 545.895 92.5718C545.895 92.2212 545.833 91.8808 545.709 91.5508C545.585 91.2105 545.389 90.9114 545.121 90.6535C544.863 90.3854 544.523 90.174 544.1 90.0193C543.677 89.8542 543.167 89.7717 542.568 89.7717C542.146 89.7717 541.738 89.8336 541.346 89.9574C540.965 90.0811 540.624 90.2616 540.325 90.4988C540.026 90.736 539.789 91.03 539.614 91.3806C539.438 91.721 539.351 92.118 539.351 92.5718ZM540.356 97.646C540.356 97.3263 540.413 97.0375 540.526 96.7797C540.65 96.5218 540.815 96.3001 541.021 96.1145C541.238 95.9288 541.486 95.7896 541.764 95.6968C542.053 95.5936 542.357 95.5421 542.677 95.5421C542.986 95.5421 543.275 95.5988 543.543 95.7122C543.822 95.8154 544.064 95.9598 544.27 96.1454C544.476 96.331 544.636 96.5528 544.75 96.8106C544.874 97.0581 544.935 97.3314 544.935 97.6305C544.935 97.9399 544.879 98.2236 544.765 98.4814C544.662 98.7392 544.507 98.9661 544.301 99.1621C544.105 99.3477 543.868 99.4973 543.59 99.6107C543.321 99.7138 543.022 99.7654 542.692 99.7654C542.012 99.7654 541.449 99.5798 541.006 99.2085C540.573 98.8269 540.356 98.3061 540.356 97.646ZM548.983 95.341C548.983 95.0728 548.983 94.7789 548.983 94.4592C548.994 94.1291 549.019 93.8043 549.061 93.4846C549.112 93.1545 549.179 92.8348 549.262 92.5254C549.355 92.216 549.484 91.9479 549.649 91.721C549.824 91.4838 550.041 91.293 550.298 91.1486C550.556 91.0042 550.871 90.932 551.242 90.932C551.613 90.932 551.928 91.0042 552.186 91.1486C552.444 91.293 552.655 91.4838 552.82 91.721C552.995 91.9479 553.124 92.216 553.207 92.5254C553.3 92.8348 553.367 93.1545 553.408 93.4846C553.459 93.8043 553.485 94.1291 553.485 94.4592C553.495 94.7789 553.501 95.0728 553.501 95.341C553.501 95.7535 553.485 96.2176 553.454 96.7333C553.434 97.2386 553.351 97.7182 553.207 98.172C553.073 98.6155 552.851 98.9919 552.541 99.3013C552.232 99.6107 551.799 99.7654 551.242 99.7654C550.685 99.7654 550.252 99.6107 549.943 99.3013C549.633 98.9919 549.406 98.6155 549.262 98.172C549.128 97.7182 549.045 97.2386 549.014 96.7333C548.994 96.2176 548.983 95.7535 548.983 95.341ZM547.591 95.3564C547.591 95.7587 547.601 96.1763 547.622 96.6095C547.643 97.0427 547.694 97.4655 547.777 97.8781C547.859 98.2906 547.978 98.6825 548.133 99.0538C548.287 99.4148 548.499 99.7345 548.767 100.013C549.035 100.291 549.37 100.513 549.772 100.678C550.185 100.833 550.675 100.91 551.242 100.91C551.82 100.91 552.309 100.833 552.712 100.678C553.114 100.513 553.449 100.291 553.717 100.013C553.985 99.7345 554.197 99.4148 554.351 99.0538C554.506 98.6825 554.625 98.2906 554.707 97.8781C554.79 97.4655 554.841 97.0427 554.862 96.6095C554.883 96.1763 554.893 95.7587 554.893 95.3564C554.893 94.9542 554.883 94.5365 554.862 94.1034C554.841 93.6702 554.79 93.2473 554.707 92.8348C554.625 92.4223 554.506 92.0304 554.351 91.6591C554.197 91.2878 553.985 90.9629 553.717 90.6845C553.449 90.406 553.109 90.1843 552.696 90.0193C552.294 89.8542 551.809 89.7717 551.242 89.7717C550.675 89.7717 550.185 89.8542 549.772 90.0193C549.37 90.1843 549.035 90.406 548.767 90.6845C548.499 90.9629 548.287 91.2878 548.133 91.6591C547.978 92.0304 547.859 92.4223 547.777 92.8348C547.694 93.2473 547.643 93.6702 547.622 94.1034C547.601 94.5365 547.591 94.9542 547.591 95.3564ZM556.822 99.0228V100.74H558.539V99.0228H556.822ZM560.524 93.6547H561.839C561.828 93.3247 561.859 92.9998 561.932 92.6801C562.014 92.3501 562.143 92.0562 562.318 91.7983C562.494 91.5405 562.715 91.3342 562.984 91.1795C563.262 91.0145 563.592 90.932 563.974 90.932C564.262 90.932 564.536 90.9784 564.794 91.0712C565.051 91.164 565.273 91.2981 565.459 91.4734C565.655 91.6488 565.809 91.8602 565.923 92.1077C566.036 92.3449 566.093 92.6131 566.093 92.9122C566.093 93.2938 566.031 93.6289 565.907 93.9177C565.794 94.2065 565.619 94.4746 565.381 94.7222C565.155 94.9697 564.866 95.2172 564.515 95.4647C564.164 95.7019 563.757 95.9649 563.293 96.2537C562.911 96.4806 562.545 96.723 562.195 96.9808C561.844 97.2386 561.529 97.5377 561.251 97.8781C560.972 98.2184 560.74 98.6206 560.555 99.0847C560.379 99.5385 560.266 100.09 560.214 100.74H567.377V99.5798H561.746C561.808 99.2394 561.937 98.9403 562.133 98.6825C562.339 98.4144 562.581 98.1668 562.86 97.9399C563.149 97.713 563.463 97.5016 563.803 97.3057C564.144 97.0994 564.484 96.8931 564.824 96.6869C565.165 96.4703 565.495 96.2434 565.815 96.0062C566.134 95.769 566.418 95.506 566.665 95.2172C566.913 94.9181 567.109 94.5829 567.253 94.2116C567.408 93.8404 567.485 93.4124 567.485 92.9276C567.485 92.412 567.393 91.9582 567.207 91.5663C567.032 91.1744 566.789 90.8495 566.48 90.5917C566.17 90.3235 565.804 90.1224 565.381 89.9883C564.969 89.8439 564.525 89.7717 564.051 89.7717C563.473 89.7717 562.958 89.8697 562.504 90.0657C562.05 90.2616 561.669 90.5349 561.359 90.8856C561.06 91.2259 560.838 91.6333 560.694 92.1077C560.55 92.5821 560.493 93.0978 560.524 93.6547ZM571.812 94.4746V95.5885C572.059 95.5575 572.322 95.5421 572.601 95.5421C572.931 95.5421 573.235 95.5885 573.513 95.6813C573.802 95.7638 574.05 95.8979 574.256 96.0835C574.462 96.2589 574.627 96.4806 574.751 96.7487C574.875 97.0066 574.937 97.3057 574.937 97.646C574.937 97.976 574.87 98.2751 574.736 98.5433C574.612 98.8011 574.442 99.0228 574.225 99.2085C574.009 99.3838 573.756 99.523 573.467 99.6262C573.178 99.719 572.874 99.7654 572.554 99.7654C571.801 99.7654 571.229 99.5437 570.837 99.1002C570.445 98.6464 570.239 98.0637 570.218 97.3521H568.903C568.893 97.9193 568.97 98.4247 569.135 98.8681C569.311 99.3116 569.558 99.6881 569.878 99.9975C570.198 100.297 570.584 100.523 571.038 100.678C571.492 100.833 571.997 100.91 572.554 100.91C573.07 100.91 573.555 100.843 574.009 100.709C574.473 100.565 574.875 100.353 575.215 100.075C575.556 99.7963 575.824 99.4508 576.02 99.0383C576.226 98.6155 576.329 98.1307 576.329 97.5841C576.329 96.9241 576.164 96.3517 575.834 95.8669C575.514 95.3822 575.019 95.0677 574.349 94.9233V94.8923C574.782 94.6964 575.143 94.4076 575.432 94.026C575.721 93.6444 575.865 93.2061 575.865 92.7111C575.865 92.2057 575.777 91.7674 575.602 91.3961C575.437 91.0248 575.205 90.7206 574.906 90.4834C574.607 90.2462 574.251 90.0708 573.838 89.9574C573.436 89.8336 572.998 89.7717 572.523 89.7717C571.977 89.7717 571.492 89.8594 571.069 90.0347C570.657 90.2101 570.311 90.4524 570.033 90.7618C569.754 91.0712 569.538 91.4425 569.383 91.8757C569.239 92.3088 569.156 92.7884 569.135 93.3144H570.45C570.45 92.9947 570.492 92.6904 570.574 92.4017C570.657 92.1129 570.78 91.8602 570.945 91.6436C571.121 91.427 571.337 91.2569 571.595 91.1331C571.863 90.999 572.173 90.932 572.523 90.932C573.08 90.932 573.544 91.0815 573.916 91.3806C574.287 91.6694 574.473 92.1077 574.473 92.6956C574.473 92.9844 574.416 93.2422 574.302 93.4691C574.189 93.696 574.034 93.8868 573.838 94.0415C573.653 94.1859 573.431 94.2993 573.173 94.3818C572.926 94.454 572.663 94.4901 572.384 94.4901H572.106C572.054 94.4901 572.003 94.4901 571.951 94.4901C571.91 94.4901 571.863 94.485 571.812 94.4746ZM582.28 97.0117H578.598L582.249 91.6436H582.28V97.0117ZM583.517 97.0117V89.7717H582.465L577.469 96.9034V98.172H582.28V100.74H583.517V98.172H585.003V97.0117H583.517Z" fill="white"/>
<path d="M489.224 120.083C494.838 120.083 499.389 115.532 499.389 109.918C499.389 104.305 494.838 99.7535 489.224 99.7535C483.61 99.7535 479.059 104.305 479.059 109.918C479.059 115.532 483.61 120.083 489.224 120.083Z" fill="#6867BE"/>
<path fill-rule="evenodd" clip-rule="evenodd" d="M489.224 118.77C494.112 118.77 498.075 114.807 498.075 109.918C498.075 105.03 494.112 101.067 489.224 101.067C484.336 101.067 480.373 105.03 480.373 109.918C480.373 114.807 484.336 118.77 489.224 118.77ZM489.225 109.274C488.027 109.274 486.914 108.201 485.087 106.255C484.848 106 484.864 105.603 485.123 105.368C485.382 105.133 485.786 105.149 486.025 105.404C487.503 106.979 488.586 108.019 489.225 108.019C489.864 108.019 490.947 106.979 492.424 105.404C492.663 105.149 493.067 105.133 493.326 105.368C493.586 105.603 493.602 106 493.363 106.255C491.536 108.201 490.423 109.274 489.225 109.274ZM492.423 114.433C492.549 114.567 492.614 114.635 492.786 114.635C493.364 114.682 493.785 114.042 493.362 113.582C491.535 111.636 490.422 110.563 489.224 110.563C488.026 110.563 486.913 111.636 485.086 113.582C484.847 113.837 484.863 114.234 485.122 114.469C485.381 114.704 485.785 114.687 486.024 114.433C487.502 112.858 488.585 111.818 489.224 111.818C489.863 111.818 490.946 112.858 492.423 114.433Z" fill="#1C1A42"/>
<g filter="url(#filter3_f_18_3423)">
<ellipse rx="7.51977" ry="3.1377" transform="matrix(0.888871 0.458158 -0.512037 0.858963 565.538 125.079)" fill="url(#paint5_linear_18_3423)"/>
</g>
<path d="M565.237 125.755C565.237 125.755 562.518 120.52 559.395 122.133C556.271 123.747 553.36 123.77 548.588 118.877C543.816 113.985 540.259 123.718 535.053 118.877" stroke="url(#paint6_linear_18_3423)" stroke-width="1.82001" stroke-linecap="round" stroke-linejoin="round"/>
<path d="M577.511 121.167L576.626 120.344C576.3 120.041 575.772 120.041 575.446 120.344C575.12 120.647 575.12 121.139 575.446 121.442L576.331 122.265L574 124.432H579.842V119L577.511 121.167Z" fill="#E3507A"/>
<path d="M588.132 120.857V121.658H591.025V120.857H588.132ZM596.227 117.814V117.063H592.724L592.063 120.747L592.794 120.787C592.961 120.587 593.151 120.426 593.364 120.306C593.585 120.179 593.835 120.116 594.115 120.116C594.355 120.116 594.572 120.156 594.766 120.236C594.966 120.316 595.136 120.43 595.276 120.577C595.416 120.717 595.523 120.887 595.597 121.087C595.677 121.281 595.717 121.494 595.717 121.728C595.717 122.008 595.677 122.255 595.597 122.468C595.516 122.675 595.406 122.849 595.266 122.989C595.133 123.129 594.973 123.236 594.786 123.309C594.606 123.376 594.415 123.409 594.215 123.409C594.002 123.409 593.805 123.379 593.625 123.319C593.451 123.253 593.298 123.162 593.164 123.049C593.037 122.929 592.934 122.792 592.854 122.639C592.78 122.478 592.737 122.308 592.724 122.128H591.873C591.879 122.448 591.943 122.735 592.063 122.989C592.183 123.243 592.347 123.456 592.553 123.63C592.76 123.796 592.997 123.927 593.264 124.02C593.538 124.107 593.828 124.15 594.135 124.15C594.549 124.15 594.909 124.087 595.216 123.96C595.53 123.826 595.79 123.65 595.997 123.429C596.204 123.209 596.357 122.959 596.457 122.679C596.564 122.392 596.618 122.098 596.618 121.798C596.618 121.391 596.558 121.037 596.437 120.737C596.317 120.43 596.154 120.176 595.947 119.976C595.74 119.769 595.496 119.616 595.216 119.515C594.936 119.415 594.639 119.365 594.325 119.365C594.085 119.365 593.841 119.409 593.595 119.495C593.354 119.576 593.157 119.702 593.004 119.876L592.984 119.856L593.364 117.814H596.227ZM597.916 122.929V124.04H599.027V122.929H597.916ZM600.311 119.455H601.162C601.155 119.242 601.175 119.032 601.222 118.825C601.275 118.611 601.359 118.421 601.472 118.254C601.586 118.087 601.729 117.954 601.903 117.854C602.083 117.747 602.296 117.694 602.543 117.694C602.73 117.694 602.907 117.724 603.074 117.784C603.241 117.844 603.384 117.931 603.504 118.044C603.631 118.157 603.731 118.294 603.805 118.454C603.878 118.608 603.915 118.781 603.915 118.975C603.915 119.222 603.875 119.439 603.795 119.626C603.721 119.812 603.608 119.986 603.454 120.146C603.307 120.306 603.121 120.466 602.894 120.627C602.667 120.78 602.403 120.95 602.103 121.137C601.856 121.284 601.619 121.441 601.392 121.608C601.165 121.774 600.962 121.968 600.782 122.188C600.601 122.408 600.451 122.669 600.331 122.969C600.218 123.263 600.144 123.62 600.111 124.04H604.746V123.289H601.102C601.142 123.069 601.225 122.876 601.352 122.709C601.486 122.535 601.642 122.375 601.823 122.228C602.009 122.081 602.213 121.945 602.433 121.818C602.653 121.684 602.874 121.551 603.094 121.417C603.314 121.277 603.528 121.13 603.735 120.977C603.941 120.823 604.125 120.653 604.285 120.466C604.445 120.273 604.572 120.056 604.665 119.816C604.766 119.576 604.816 119.299 604.816 118.985C604.816 118.651 604.756 118.358 604.635 118.104C604.522 117.85 604.365 117.64 604.165 117.473C603.965 117.3 603.728 117.17 603.454 117.083C603.187 116.99 602.9 116.943 602.593 116.943C602.22 116.943 601.886 117.006 601.592 117.133C601.299 117.26 601.052 117.437 600.852 117.664C600.658 117.884 600.515 118.147 600.421 118.454C600.328 118.761 600.291 119.095 600.311 119.455ZM607.615 119.986V120.707C607.775 120.687 607.945 120.677 608.126 120.677C608.339 120.677 608.536 120.707 608.716 120.767C608.903 120.82 609.063 120.907 609.197 121.027C609.33 121.14 609.437 121.284 609.517 121.457C609.597 121.624 609.637 121.818 609.637 122.038C609.637 122.252 609.594 122.445 609.507 122.619C609.427 122.785 609.317 122.929 609.177 123.049C609.037 123.162 608.873 123.253 608.686 123.319C608.499 123.379 608.302 123.409 608.096 123.409C607.608 123.409 607.238 123.266 606.984 122.979C606.731 122.685 606.597 122.308 606.584 121.848H605.733C605.727 122.215 605.777 122.542 605.883 122.829C605.997 123.116 606.157 123.359 606.364 123.56C606.571 123.753 606.821 123.9 607.115 124C607.408 124.1 607.735 124.15 608.096 124.15C608.429 124.15 608.743 124.107 609.037 124.02C609.337 123.927 609.597 123.79 609.817 123.61C610.038 123.429 610.211 123.206 610.338 122.939C610.471 122.665 610.538 122.352 610.538 121.998C610.538 121.571 610.431 121.201 610.218 120.887C610.011 120.573 609.691 120.37 609.257 120.276V120.256C609.537 120.129 609.771 119.943 609.957 119.696C610.144 119.449 610.238 119.165 610.238 118.845C610.238 118.518 610.181 118.234 610.068 117.994C609.961 117.754 609.811 117.557 609.617 117.403C609.424 117.25 609.193 117.136 608.926 117.063C608.666 116.983 608.383 116.943 608.076 116.943C607.722 116.943 607.408 117 607.135 117.113C606.868 117.227 606.644 117.383 606.464 117.584C606.284 117.784 606.144 118.024 606.044 118.304C605.95 118.585 605.897 118.895 605.883 119.235H606.734C606.734 119.028 606.761 118.831 606.814 118.645C606.868 118.458 606.948 118.294 607.055 118.154C607.168 118.014 607.308 117.904 607.475 117.824C607.648 117.737 607.849 117.694 608.076 117.694C608.436 117.694 608.736 117.79 608.976 117.984C609.217 118.171 609.337 118.454 609.337 118.835C609.337 119.022 609.3 119.189 609.227 119.335C609.153 119.482 609.053 119.606 608.926 119.706C608.806 119.799 608.663 119.873 608.496 119.926C608.336 119.973 608.166 119.996 607.985 119.996H607.805C607.772 119.996 607.739 119.996 607.705 119.996C607.678 119.996 607.648 119.993 607.615 119.986ZM612.667 118.955C612.667 118.801 612.677 118.641 612.697 118.474C612.717 118.301 612.757 118.144 612.817 118.004C612.884 117.857 612.974 117.737 613.087 117.644C613.201 117.544 613.351 117.493 613.538 117.493C613.731 117.493 613.881 117.544 613.988 117.644C614.102 117.737 614.188 117.857 614.248 118.004C614.308 118.144 614.345 118.301 614.359 118.474C614.379 118.641 614.389 118.798 614.389 118.945C614.389 119.098 614.379 119.262 614.359 119.435C614.338 119.609 614.295 119.769 614.228 119.916C614.168 120.056 614.082 120.173 613.968 120.266C613.855 120.36 613.701 120.406 613.508 120.406C613.321 120.406 613.171 120.36 613.057 120.266C612.95 120.166 612.867 120.046 612.807 119.906C612.747 119.759 612.707 119.602 612.687 119.435C612.673 119.262 612.667 119.102 612.667 118.955ZM611.916 118.975C611.916 119.249 611.943 119.505 611.996 119.746C612.056 119.986 612.15 120.196 612.276 120.376C612.403 120.557 612.57 120.7 612.777 120.807C612.984 120.907 613.237 120.957 613.538 120.957C613.831 120.957 614.078 120.9 614.278 120.787C614.479 120.673 614.642 120.527 614.769 120.346C614.902 120.159 614.996 119.946 615.049 119.706C615.109 119.459 615.139 119.205 615.139 118.945C615.139 118.671 615.113 118.414 615.059 118.174C615.012 117.927 614.926 117.714 614.799 117.534C614.679 117.353 614.515 117.21 614.308 117.103C614.108 116.996 613.851 116.943 613.538 116.943C613.231 116.943 612.974 117 612.767 117.113C612.56 117.22 612.393 117.367 612.266 117.554C612.14 117.74 612.05 117.957 611.996 118.204C611.943 118.444 611.916 118.701 611.916 118.975ZM617.612 122.158C617.612 122.005 617.622 121.845 617.642 121.678C617.662 121.504 617.702 121.347 617.762 121.207C617.829 121.06 617.919 120.94 618.032 120.847C618.146 120.747 618.296 120.697 618.483 120.697C618.676 120.697 618.826 120.747 618.933 120.847C619.047 120.94 619.133 121.06 619.193 121.207C619.253 121.347 619.29 121.504 619.303 121.678C619.323 121.845 619.333 122.001 619.333 122.148C619.333 122.302 619.323 122.465 619.303 122.639C619.283 122.812 619.24 122.972 619.173 123.119C619.113 123.259 619.027 123.376 618.913 123.469C618.8 123.563 618.646 123.61 618.453 123.61C618.266 123.61 618.116 123.563 618.002 123.469C617.895 123.369 617.812 123.249 617.752 123.109C617.692 122.962 617.652 122.805 617.632 122.639C617.618 122.465 617.612 122.305 617.612 122.158ZM616.861 122.178C616.861 122.452 616.888 122.709 616.941 122.949C617.001 123.189 617.095 123.399 617.221 123.58C617.348 123.753 617.515 123.893 617.722 124C617.929 124.1 618.182 124.15 618.483 124.15C618.776 124.15 619.023 124.097 619.223 123.99C619.424 123.877 619.587 123.73 619.714 123.55C619.847 123.363 619.941 123.149 619.994 122.909C620.054 122.662 620.084 122.408 620.084 122.148C620.084 121.875 620.058 121.618 620.004 121.377C619.957 121.13 619.871 120.917 619.744 120.737C619.624 120.557 619.46 120.413 619.253 120.306C619.053 120.2 618.796 120.146 618.483 120.146C618.176 120.146 617.919 120.203 617.712 120.316C617.505 120.423 617.338 120.57 617.211 120.757C617.085 120.944 616.994 121.16 616.941 121.407C616.888 121.648 616.861 121.905 616.861 122.178ZM618.262 116.813L612.877 124.25H613.738L619.113 116.813H618.262Z" fill="#E3507A"/>
<rect x="461.455" y="73.455" width="184.09" height="66.09" rx="8.64504" stroke="#7473D0" stroke-width="0.910004"/>
<defs>
<filter id="filter0_f_18_3423" x="-29.7057" y="0.414932" width="325.572" height="228.202" filterUnits="userSpaceOnUse" color-interpolation-filters="sRGB">
<feFlood flood-opacity="0" result="BackgroundImageFix"/>
<feBlend mode="normal" in="SourceGraphic" in2="BackgroundImageFix" result="shape"/>
<feGaussianBlur stdDeviation="41.3529" result="effect1_foregroundBlur_18_3423"/>
</filter>
<filter id="filter1_d_18_3423" x="76.1936" y="94.7113" width="27.7713" height="30.8574" filterUnits="userSpaceOnUse" color-interpolation-filters="sRGB">
<feFlood flood-opacity="0" result="BackgroundImageFix"/>
<feColorMatrix in="SourceAlpha" type="matrix" values="0 0 0 0 0 0 0 0 0 0 0 0 0 0 0 0 0 0 127 0" result="hardAlpha"/>
<feOffset dy="3.64002"/>
<feGaussianBlur stdDeviation="3.64002"/>
<feColorMatrix type="matrix" values="0 0 0 0 0 0 0 0 0 0 0 0 0 0 0 0 0 0 0.0744452 0"/>
<feBlend mode="normal" in2="BackgroundImageFix" result="effect1_dropShadow_18_3423"/>
<feBlend mode="normal" in="SourceGraphic" in2="effect1_dropShadow_18_3423" result="shape"/>
</filter>
<filter id="filter2_f_18_3423" x="327.756" y="94.5535" width="49.5759" height="42.9459" filterUnits="userSpaceOnUse" color-interpolation-filters="sRGB">
<feFlood flood-opacity="0" result="BackgroundImageFix"/>
<feBlend mode="normal" in="SourceGraphic" in2="BackgroundImageFix" result="shape"/>
<feGaussianBlur stdDeviation="8.58875" result="effect1_foregroundBlur_18_3423"/>
</filter>
<filter id="filter3_f_18_3423" x="541.484" y="103.528" width="48.1072" height="43.1038" filterUnits="userSpaceOnUse" color-interpolation-filters="sRGB">
<feFlood flood-opacity="0" result="BackgroundImageFix"/>
<feBlend mode="normal" in="SourceGraphic" in2="BackgroundImageFix" result="shape"/>
<feGaussianBlur stdDeviation="8.58875" result="effect1_foregroundBlur_18_3423"/>
</filter>
<linearGradient id="paint0_linear_18_3423" x1="17.4964" y1="114.516" x2="101.592" y2="209.617" gradientUnits="userSpaceOnUse">
<stop stop-color="#40DDFF"/>
<stop offset="1" stop-color="#0B98C5" stop-opacity="0.01"/>
</linearGradient>
<linearGradient id="paint1_linear_18_3423" x1="-28.5" y1="106.5" x2="20.0837" y2="209.087" gradientUnits="userSpaceOnUse">
<stop stop-color="#42E8E0"/>
<stop offset="1" stop-color="#0B98C5"/>
</linearGradient>
<linearGradient id="paint2_linear_18_3423" x1="147.095" y1="112.298" x2="141.492" y2="127.618" gradientUnits="userSpaceOnUse">
<stop stop-color="#AAFFF7"/>
<stop offset="1" stop-color="white"/>
</linearGradient>
<linearGradient id="paint3_linear_18_3423" x1="8.50266" y1="10.7306" x2="12.8967" y2="3.73257" gradientUnits="userSpaceOnUse">
<stop stop-color="#62CBFF" stop-opacity="0.01"/>
<stop offset="1" stop-color="#339CFE"/>
</linearGradient>
<linearGradient id="paint4_linear_18_3423" x1="344.533" y1="113.131" x2="338.707" y2="129.061" gradientUnits="userSpaceOnUse">
<stop stop-color="#309AFF"/>
<stop offset="0.287496" stop-color="#309AFF"/>
<stop offset="0.651175" stop-color="#5364AE"/>
<stop offset="1" stop-color="#70366B" stop-opacity="0.01"/>
</linearGradient>
<linearGradient id="paint5_linear_18_3423" x1="8.22155" y1="8.0477" x2="11.0326" y2="2.24089" gradientUnits="userSpaceOnUse">
<stop stop-color="#FF62B8" stop-opacity="0.01"/>
<stop offset="1" stop-color="#FE33D1"/>
</linearGradient>
<linearGradient id="paint6_linear_18_3423" x1="546.595" y1="115.263" x2="552.066" y2="130.488" gradientUnits="userSpaceOnUse">
<stop stop-color="#A330FF" stop-opacity="0.01"/>
<stop offset="0.393247" stop-color="#BC3DCB"/>
<stop offset="1" stop-color="#E3507A"/>
</linearGradient>
</defs>
</svg>
